<?xml version="1.0" encoding="UTF-8"?>
<!DOCTYPE svg PUBLIC "-//W3C//DTD SVG 1.1//EN" "http://www.w3.org/Graphics/SVG/1.1/DTD/svg11.dtd">
<!-- Creator: CorelDRAW 2020 (64-Bit) -->
<svg xmlns="http://www.w3.org/2000/svg" xml:space="preserve" width="297mm" height="150mm" version="1.1" style="shape-rendering:geometricPrecision; text-rendering:geometricPrecision; image-rendering:optimizeQuality; fill-rule:evenodd; clip-rule:evenodd"
viewBox="0 0 29700 15000"
 xmlns:xlink="http://www.w3.org/1999/xlink"
 xmlns:xodm="http://www.corel.com/coreldraw/odm/2003">
 <defs>
  <style type="text/css">
   <![CDATA[
    .str0 {stroke:#FF6E00;stroke-width:20;stroke-miterlimit:22.9256}
    .fil3 {fill:#FEFEFE}
    .fil0 {fill:#FF6E00}
    .fil2 {fill:#FFFEFD}
    .fil1 {fill:#FFFEFE}
   ]]>
  </style>
 </defs>
 <g id="Capa_x0020_1">
  <metadata id="CorelCorpID_0Corel-Layer"/>
  <rect class="fil0 str0" x="-158.62" y="-48.58" width="29845.01" height="15155.35"/>
  <g id="_1923465197120">
   <g>
    <path class="fil1" d="M10764.52 9589.49c-160.03,966.3 -1605.61,824.51 -1431.24,-359.15 141.53,-960.67 1626.95,-822.54 1431.24,359.15zm-1878.18 34.48l322.21 -16.18c-15.06,887.98 -1340.31,840.24 -1346.04,-190.72 -6.31,-1133.33 1411.8,-995.37 1338.41,-207.44l-318.14 0.61c-67.18,-504.46 -677.79,-439.72 -672.69,206.91 4.45,564.66 404.74,561.32 557.13,460.75 85.39,-56.35 92.29,-138.58 119.12,-253.93zm-1252.2 -692.61l-1.15 310.66 -861.55 3.96 -0.27 630.56 41.06 0.3 963.47 0.91 -0.14 300.73 -1353.02 13.84 1.37 -2151.12 1334.25 0.85 3.32 302.62 -990.3 4.23 0 578.9 862.96 3.56zm-1666.58 514.38c165.51,1337.54 1343.67,2391.31 2879.18,2228.4 1314.49,-139.47 2436.83,-1323.96 2261.08,-2821.36 -157.72,-1343.78 -1344.01,-2402.18 -2880.13,-2239.2 -1313.92,139.41 -2445.88,1331.15 -2260.13,2832.16z"/>
    <path class="fil1" d="M14590.37 8845.77l0.63 -131.71 -271.42 -1.09 0.9 1421.29 258.89 -1.34c0,-279.4 -49.43,-991.48 68.97,-1130.28 45.84,-53.75 139.93,-121.09 245.56,-130.83 318.62,-29.41 319.47,208.33 318.3,487.59 -1.07,257.26 -0.45,514.54 -0.47,774.86l258.9 -1.34c0,-267.46 1.7,-535.48 -0.53,-802.87 -2.23,-268.05 53.45,-437.24 314.65,-458.7 323.93,-26.62 310.32,211.45 309.28,487.98 -0.98,257.82 -0.24,515.76 -0.29,775.72l268.14 -2.13c-32.63,-748.51 126.35,-1460.82 -517.15,-1480.86 -274.09,16.82 -316.64,161.06 -446.78,231.13 -110.88,-339.55 -669.44,-265.4 -807.58,-37.42z"/>
    <path class="fil1" d="M12175.37 8845.77l0.66 -129.25 -271.44 -3.55 0.89 1421.29 258.91 -1.34c0,-267.45 1.84,-535.55 -0.59,-802.92 -1.77,-194.77 23.92,-431.31 315.11,-458.19 318.61,-29.41 319.46,208.33 318.3,487.59 -1.08,257.26 -0.46,514.54 -0.47,774.86l258.89 -1.34c0,-267.46 1.7,-535.48 -0.53,-802.87 -2.23,-268.05 53.45,-437.24 314.65,-458.7 323.93,-26.62 310.33,211.45 309.28,487.98 -0.97,257.82 -0.24,515.76 -0.24,775.72l268.09 -2.13c0,-290.07 42.91,-1067.28 -70.85,-1282.08 -65.17,-123.05 -239.09,-211.49 -446.3,-198.78 -280.75,17.22 -261.31,131.36 -446.78,231.13 -110.88,-339.55 -669.44,-265.4 -807.58,-37.42z"/>
    <path class="fil1" d="M16933.27 9262.62c9.55,-567.7 782.32,-532.89 717.68,0l-717.68 0zm800.34 507.48c-385.87,378.33 -791.14,208.68 -815.79,-300.61l999.91 -0.49 6.11 -109.51c59.23,-939.8 -1274.53,-994.81 -1274.53,28.74 0,822.68 748.91,1045.78 1251.97,517.51 -45.03,-56.23 -84.14,-102.89 -167.67,-135.64z"/>
    <path class="fil1" d="M21535.79 9273.96l-753.47 -2.82c71.54,-559.46 758.17,-559.24 753.47,2.82zm82.66 499.61c-120.36,95.24 -270.18,262.53 -558.19,172.55 -188.85,-59 -257.16,-249.42 -280.52,-476.38l1003.3 -4.2 3.3 -106.05c39,-988.53 -1274.52,-960.38 -1274.52,28.74 0,1064.41 1127.87,879.63 1258.48,486.02l-151.85 -100.68z"/>
    <path class="fil1" d="M20067.54 9654.54c-84.54,526.31 -787.06,403.97 -750.87,-295.33 31.29,-604.49 505.04,-548.6 640.68,-437.26 221.95,182.19 -95.22,250.21 359.94,228.87 -48.37,-715.17 -1295.21,-761.72 -1267.59,295.47 25.84,989.29 1265.54,915.28 1263.68,208.21l-245.84 0.04z"/>
    <path class="fil1" d="M9935.91 8913.89c-418.91,134.9 -358.76,1146.71 216.88,996.89 432.63,-112.6 369.4,-1185.7 -216.88,-996.89z"/>
    <path class="fil1" d="M18453.91 8707.24l-226.32 -18.42 -0.19 1446.49 246.3 -10.59c0,-900.79 -132.72,-1248.85 476.24,-1232.47l-17.74 -237.56c-281.26,-46.54 -349.53,69.77 -469.06,185.42l-9.23 -132.87z"/>
   </g>
   <g>
    <path class="fil1" d="M23257.2 9599.79c-82.84,-39.72 -60.78,-32.83 -115.06,-126.82 -25.76,-44.58 -50.62,-90.16 -73.93,-126.42 -65.12,-101.35 -112.87,-164.62 -179.1,-251.49 -582.53,-763.91 -22.75,-1489.24 626.47,-1499.74 502.22,-8.12 888.13,359.95 907.51,843.56 22.37,558.51 -377.34,685.08 -549.56,1160.91l-616.33 0zm805 345.19c104.2,-72.69 162.52,-323.09 325.42,-547.23 47.94,-65.95 81.11,-90.49 131.83,-155.44 162.21,-207.73 283.52,-529.45 252.64,-880.18 -125.76,-1428.21 -2251.79,-1501.89 -2464.73,-66.65 -127.52,859.59 528.57,1034.27 653.89,1649.29l1100.95 0.21z"/>
    <path class="fil1" d="M22965.13 10167.38c0,299.95 -16.11,314.9 117.1,517.73 124.27,189.23 178.8,164.63 462.56,164.86 281.31,0.23 307.88,17.89 449.69,-177.79 121.5,-167.68 110.6,-258.48 110.6,-507.94l-1139.95 3.14z"/>
    <path class="fil2" d="M22884.59 8463.79c290.37,108.16 151.48,-167.36 302.54,-323.97 172.56,-178.9 409.96,9.19 334.09,-307.47 -370.6,-108.29 -764.07,274.98 -636.63,631.44z"/>
   </g>
  </g>
  <g id="_1923465197936">
   <path class="fil3" d="M16964.25 6503.68l588.92 2.75 -5.03 105.2c-116.53,14.64 -229.43,7.61 -346.59,9.27 -200.88,2.83 -230.19,53.77 -237.3,-117.22zm-814.11 7.62l588.31 -8.56c-12.33,171.47 -25.92,121.13 -234.28,118.15 -117.29,-1.68 -231.1,4.42 -347.31,-7.7l-6.72 -101.89zm-808.41 21.45c33.87,-19.81 -33.27,-18.71 95.69,-30.42 40.15,-3.65 122.97,0.86 167.53,1.19 108.91,0.79 214.46,-1.08 323.44,4.15l-3.27 91.65c-79.47,37.1 -217.81,20.44 -320.23,21.3 -189.73,1.58 -235.82,54.45 -263.16,-87.87zm-594.29 -27.03l374.96 -3.17c14.11,29.73 16.49,62.97 -0.59,102.06l-372.6 2.74 -1.77 -101.63zm2008.47 -332.16c-70.7,-164.75 -67.36,-314.9 -1.62,-481.46 148.93,-29.88 345.35,-27.68 516.89,-25.5 223.31,2.84 285.07,37.47 284.73,267.16 -0.3,206.36 -48.02,258.25 -251.39,266.33 -170.32,6.77 -403.16,4.02 -548.61,-26.53zm-2481.51 691.9c51.3,220.47 303.89,193.85 532.09,192.97l2162.77 -0.13c869.37,0.01 845.73,75.11 844.87,-625.37 -0.33,-270.16 35.22,-1234.32 -11.96,-1425.73 -57.5,-233.26 -278.6,-201.68 -533.32,-200.66l-2162.76 0.17c-744.77,-0.01 -842.31,-138.08 -841.32,628.1 0.36,276.39 -36.88,1230.82 9.63,1430.65z"/>
   <path class="fil3" d="M14138.32 6029.65c81.1,-1172.54 -280.22,-1343.72 834.69,-1343.59 690.51,0.07 1507.3,-38.01 2183.69,6.94l-244.69 -846.7 -3404.78 923.1 194.12 770.23c82.01,296.47 100.06,485.64 436.97,490.02z"/>
   <path class="fil3" d="M16814.2 3448.74c-51.23,-203.97 -73.13,-376.46 -308.36,-374.07l-2527.47 664.76c-116.89,30.46 -395.05,89.44 -495.7,138 -196.57,94.84 -140.23,275.54 -109.37,476.41l3440.9 -905.1z"/>
   <path class="fil0" d="M15124.94 6624.05c33.21,-7.12 43.84,-143.35 0.02,-164.64l-600.49 5.69c-48.84,53.05 -49.87,108.01 -12.97,161.99l613.44 -3.04z"/>
   <path class="fil0" d="M15923.15 6631.54c33.21,-7.12 43.84,-143.35 0.02,-164.64l-600.49 5.69c-48.84,53.05 -49.87,108 -12.96,161.99l613.43 -3.04z"/>
   <path class="fil0" d="M16741.62 6626.55c33.21,-7.12 43.84,-143.35 0.02,-164.64l-600.49 5.69c-48.84,53.05 -49.87,108.01 -12.96,161.99l613.43 -3.04z"/>
   <path class="fil0" d="M17570.07 6626.55c33.21,-7.12 43.84,-143.35 0.02,-164.64l-600.49 5.69c-48.84,53.05 -49.87,108.01 -12.97,161.99l613.44 -3.04z"/>
   <path class="fil0" d="M17518.13 6209.11c120.13,-41.58 139.84,-531.27 0.03,-590.36l-781.4 20.42c-151.22,205.87 -163.54,404.87 -16.88,580.83l798.25 -10.89z"/>
  </g>
 </g>
</svg>
