<?xml version="1.0" encoding="UTF-8"?>
<!DOCTYPE svg PUBLIC "-//W3C//DTD SVG 1.1//EN" "http://www.w3.org/Graphics/SVG/1.1/DTD/svg11.dtd">
<!-- Creator: CorelDRAW 2020 (64-Bit) -->
<svg xmlns="http://www.w3.org/2000/svg" xml:space="preserve" width="297mm" height="180mm" version="1.1" style="shape-rendering:geometricPrecision; text-rendering:geometricPrecision; image-rendering:optimizeQuality; fill-rule:evenodd; clip-rule:evenodd"
viewBox="0 0 29700 18000"
 xmlns:xlink="http://www.w3.org/1999/xlink"
 xmlns:xodm="http://www.corel.com/coreldraw/odm/2003">
 <defs>
  <style type="text/css">
   <![CDATA[
    .fil3 {fill:#FEFEFE}
    .fil0 {fill:#F59527}
    .fil2 {fill:#FFFEFD}
    .fil1 {fill:#FFFEFE}
   ]]>
  </style>
 </defs>
 <g id="Capa_x0020_1">
  <metadata id="CorelCorpID_0Corel-Layer"/>
  <rect class="fil0" x="-19.68" y="34.23" width="29845.01" height="17928.91"/>
  <g id="_2517610252256">
   <g>
    <path class="fil1" d="M9791 9235.47c-174.4,1053.03 -1749.74,898.51 -1559.71,-391.39 154.23,-1046.9 1772.98,-896.37 1559.71,391.39zm-2046.78 37.58l351.14 -17.64c-16.41,967.69 -1460.61,915.66 -1466.86,-207.84 -6.88,-1235.06 1538.52,-1084.72 1458.55,-226.06l-346.7 0.67c-73.21,-549.74 -738.62,-479.2 -733.07,225.47 4.85,615.35 441.07,611.71 607.13,502.12 93.06,-61.42 100.58,-151.02 129.81,-276.72zm-1364.58 -754.79l-1.26 338.55 -938.88 4.32 -0.3 687.16 44.74 0.32 1049.96 0.99 -0.16 327.73 -1474.46 15.08 1.5 -2344.21 1454.01 0.93 3.61 329.78 -1079.19 4.62 0 630.86 940.43 3.87zm-1816.18 560.56c180.36,1457.6 1464.27,2605.95 3137.62,2428.41 1432.48,-151.98 2655.55,-1442.8 2464.03,-3074.6 -171.88,-1464.39 -1464.65,-2617.79 -3138.65,-2440.18 -1431.86,151.91 -2665.42,1450.62 -2463,3086.37z"/>
    <path class="fil1" d="M13960.25 8425l0.69 -143.54 -295.79 -1.19 0.99 1548.87 282.13 -1.47c0,-304.47 -53.87,-1080.46 75.16,-1231.73 49.95,-58.57 152.48,-131.95 267.6,-142.58 347.21,-32.05 348.14,227.03 346.87,531.36 -1.17,280.36 -0.5,560.73 -0.52,844.42l282.14 -1.47c0,-291.46 1.85,-583.54 -0.58,-874.93 -2.42,-292.11 58.25,-476.49 342.9,-499.87 353,-29.01 338.18,230.42 337.04,531.78 -1.07,280.96 -0.26,562.05 -0.32,845.34l292.21 -2.32c-35.56,-815.69 137.69,-1591.93 -563.57,-1613.78 -298.69,18.33 -345.06,175.52 -486.89,251.88 -120.82,-370.03 -729.52,-289.22 -880.06,-40.77z"/>
    <path class="fil1" d="M11328.48 8425l0.72 -140.86 -295.8 -3.87 0.97 1548.87 282.14 -1.47c0,-291.45 2.01,-583.62 -0.64,-874.98 -1.93,-212.26 26.07,-470.03 343.39,-499.33 347.22,-32.05 348.14,227.03 346.87,531.36 -1.17,280.36 -0.49,560.73 -0.51,844.42l282.14 -1.47c0,-291.46 1.84,-583.54 -0.58,-874.93 -2.43,-292.11 58.25,-476.49 342.89,-499.87 353,-29.01 338.18,230.42 337.04,531.78 -1.06,280.96 -0.26,562.05 -0.26,845.34l292.15 -2.32c0,-316.1 46.77,-1163.07 -77.21,-1397.16 -71.01,-134.09 -260.55,-230.47 -486.35,-216.62 -305.96,18.77 -284.78,143.16 -486.89,251.88 -120.83,-370.03 -729.53,-289.22 -880.07,-40.77z"/>
    <path class="fil1" d="M16513.45 8879.26c10.4,-618.66 852.53,-580.72 782.1,0l-782.1 0zm872.18 553.03c-420.51,412.29 -862.16,227.41 -889.02,-327.59l1089.67 -0.54 6.65 -119.34c64.55,-1024.16 -1388.93,-1084.1 -1388.93,31.33 0,896.52 816.13,1139.64 1364.35,563.95 -49.08,-61.27 -91.7,-112.12 -182.72,-147.81z"/>
    <path class="fil1" d="M21529.09 8891.62l-821.1 -3.08c77.96,-609.67 826.22,-609.43 821.1,3.08zm90.08 544.45c-131.16,103.79 -294.43,286.1 -608.3,188.04 -205.8,-64.3 -280.23,-271.81 -305.69,-519.14l1093.35 -4.58 3.6 -115.57c42.5,-1077.26 -1388.92,-1046.58 -1388.92,31.33 0,1159.94 1229.1,958.57 1371.44,529.64l-165.48 -109.72z"/>
    <path class="fil1" d="M19929.05 9306.35c-92.13,573.56 -857.7,440.23 -818.27,-321.83 34.1,-658.75 550.38,-597.85 698.19,-476.51 241.87,198.54 -103.77,272.67 392.25,249.41 -52.71,-779.36 -1411.47,-830.09 -1381.38,322 28.17,1078.09 1379.14,997.43 1377.12,226.9l-267.91 0.03z"/>
    <path class="fil1" d="M8888.01 8499.22c-456.51,147.02 -390.96,1249.65 236.35,1086.38 471.46,-122.71 402.55,-1292.13 -236.35,-1086.38z"/>
    <path class="fil1" d="M18170.58 8274.03l-246.63 -20.07 -0.22 1576.32 268.41 -11.54c0,-981.65 -144.63,-1360.95 518.99,-1343.09l-19.33 -258.89c-306.5,-50.71 -380.9,76.03 -511.16,202.07l-10.06 -144.8z"/>
   </g>
   <g>
    <path class="fil1" d="M23405.02 9246.69c-90.28,-43.28 -66.25,-35.78 -125.4,-138.2 -28.07,-48.58 -55.16,-98.25 -80.56,-137.77 -70.97,-110.44 -123,-179.4 -195.18,-274.06 -634.81,-832.48 -24.79,-1622.92 682.7,-1634.36 547.31,-8.85 967.86,392.26 988.97,919.28 24.37,608.64 -411.21,746.58 -598.89,1265.11l-671.64 0zm877.24 376.18c113.56,-79.22 177.12,-352.1 354.64,-596.35 52.24,-71.87 88.39,-98.62 143.67,-169.39 176.76,-226.38 308.96,-576.98 275.31,-959.19 -137.05,-1556.41 -2453.91,-1636.69 -2685.96,-72.63 -138.98,936.74 576.01,1127.1 712.58,1797.33l1199.76 0.23z"/>
    <path class="fil1" d="M23086.73 9865.23c0,326.87 -17.56,343.16 127.61,564.2 135.42,206.22 194.84,179.41 504.08,179.66 306.55,0.25 335.51,19.5 490.05,-193.75 132.4,-182.73 120.53,-281.68 120.53,-553.53l-1242.27 3.42z"/>
    <path class="fil2" d="M22998.96 8008.72c316.43,117.88 165.07,-182.38 329.69,-353.04 188.05,-194.97 446.76,10.01 364.08,-335.08 -403.86,-118.01 -832.65,299.67 -693.77,688.12z"/>
   </g>
  </g>
  <g id="_2517610250096">
   <path class="fil3" d="M16865.9 6657.97l588.92 2.75 -5.03 105.2c-116.53,14.64 -229.43,7.61 -346.59,9.27 -200.88,2.83 -230.19,53.77 -237.3,-117.22zm-814.11 7.62l588.31 -8.56c-12.33,171.47 -25.92,121.13 -234.28,118.15 -117.29,-1.68 -231.1,4.42 -347.31,-7.7l-6.72 -101.89zm-808.41 21.45c33.87,-19.81 -33.27,-18.71 95.69,-30.42 40.15,-3.65 122.97,0.86 167.53,1.19 108.91,0.79 214.46,-1.08 323.44,4.15l-3.27 91.65c-79.47,37.1 -217.81,20.44 -320.23,21.3 -189.73,1.58 -235.82,54.45 -263.16,-87.87zm-594.29 -27.03l374.96 -3.17c14.11,29.73 16.49,62.97 -0.59,102.06l-372.6 2.74 -1.77 -101.63zm2008.47 -332.16c-70.7,-164.75 -67.36,-314.9 -1.62,-481.46 148.93,-29.88 345.35,-27.68 516.89,-25.5 223.31,2.84 285.07,37.47 284.73,267.16 -0.3,206.36 -48.02,258.25 -251.39,266.33 -170.32,6.77 -403.16,4.02 -548.61,-26.53zm-2481.51 691.9c51.3,220.47 303.89,193.85 532.09,192.97l2162.77 -0.13c869.37,0.01 845.73,75.11 844.87,-625.37 -0.33,-270.16 35.22,-1234.32 -11.96,-1425.73 -57.5,-233.26 -278.6,-201.68 -533.32,-200.66l-2162.76 0.17c-744.77,-0.01 -842.31,-138.08 -841.32,628.1 0.36,276.39 -36.88,1230.82 9.63,1430.65z"/>
   <path class="fil3" d="M14039.97 6183.94c81.1,-1172.54 -280.22,-1343.72 834.69,-1343.59 690.51,0.07 1507.3,-38.01 2183.69,6.94l-244.69 -846.7 -3404.78 923.1 194.12 770.23c82.01,296.47 100.06,485.64 436.97,490.02z"/>
   <path class="fil3" d="M16715.85 3603.03c-51.23,-203.97 -73.13,-376.46 -308.36,-374.07l-2527.47 664.76c-116.89,30.46 -395.05,89.44 -495.7,138 -196.57,94.84 -140.23,275.54 -109.37,476.41l3440.9 -905.1z"/>
   <path class="fil0" d="M15026.59 6778.34c33.21,-7.12 43.84,-143.35 0.02,-164.64l-600.49 5.69c-48.84,53.05 -49.87,108.01 -12.97,161.99l613.44 -3.04z"/>
   <path class="fil0" d="M15824.8 6785.83c33.21,-7.12 43.84,-143.35 0.02,-164.64l-600.49 5.69c-48.84,53.05 -49.87,108 -12.96,161.99l613.43 -3.04z"/>
   <path class="fil0" d="M16643.27 6780.84c33.21,-7.12 43.84,-143.35 0.02,-164.64l-600.49 5.69c-48.84,53.05 -49.87,108.01 -12.96,161.99l613.43 -3.04z"/>
   <path class="fil0" d="M17471.72 6780.84c33.21,-7.12 43.84,-143.35 0.02,-164.64l-600.49 5.69c-48.84,53.05 -49.87,108.01 -12.97,161.99l613.44 -3.04z"/>
   <path class="fil0" d="M17419.78 6363.4c120.13,-41.58 139.84,-531.27 0.03,-590.36l-781.4 20.42c-151.22,205.87 -163.54,404.87 -16.88,580.83l798.25 -10.89z"/>
  </g>
 </g>
</svg>
