<?xml version="1.0" encoding="UTF-8"?>
<!DOCTYPE svg PUBLIC "-//W3C//DTD SVG 1.1//EN" "http://www.w3.org/Graphics/SVG/1.1/DTD/svg11.dtd">
<!-- Creator: CorelDRAW 2020 (64-Bit) -->
<svg xmlns="http://www.w3.org/2000/svg" xml:space="preserve" width="297mm" height="180mm" version="1.1" style="shape-rendering:geometricPrecision; text-rendering:geometricPrecision; image-rendering:optimizeQuality; fill-rule:evenodd; clip-rule:evenodd"
viewBox="0 0 29700 18000"
 xmlns:xlink="http://www.w3.org/1999/xlink"
 xmlns:xodm="http://www.corel.com/coreldraw/odm/2003">
 <defs>
  <style type="text/css">
   <![CDATA[
    .fil15 {fill:black}
    .fil14 {fill:#026DB3}
    .fil20 {fill:#0465A8}
    .fil17 {fill:#0A5997}
    .fil13 {fill:#0C5EA1}
    .fil0 {fill:#0D4F8B}
    .fil9 {fill:#144984}
    .fil11 {fill:#145594}
    .fil19 {fill:#15437C}
    .fil10 {fill:#18427A}
    .fil12 {fill:#1C3265}
    .fil7 {fill:#1D2C5E}
    .fil4 {fill:#1D2E61}
    .fil1 {fill:#21376E}
    .fil2 {fill:#3465AF}
    .fil8 {fill:#3567AF}
    .fil6 {fill:#3C5AA6}
    .fil18 {fill:#757B67}
    .fil5 {fill:#C7A008}
    .fil21 {fill:#C7A20D}
    .fil16 {fill:#C9A108}
    .fil3 {fill:#FECA05}
   ]]>
  </style>
   <clipPath id="id0">
    <rect x="-133.75" y="12.01" width="29771.91" height="18034.5"/>
   </clipPath>
 </defs>
 <g id="Capa_x0020_1">
  <metadata id="CorelCorpID_0Corel-Layer"/>
  <g style="clip-path:url(#id0)">
   <image x="-133.75" y="11.95" width="29771.92" height="18034.56" xlink:href="poke-logo_Images\poke-logo_ImgID1.png"/>
  </g>
  <g id="_2517610951472">
   <path class="fil0" d="M18495.85 8347.43c99.05,23.22 195.91,50.33 291.06,80.47l-428.06 -2052.07 -169.91 196.34 306.91 1775.26z"/>
   <path class="fil1" d="M21232.72 12468.39c74.99,68.74 134.6,150.67 202.8,223.55l794.08 -2482.1 898.59 -3122.49 -396.3 107.35 -1499.17 5273.69z"/>
   <path class="fil2" d="M10156.42 11389.88c-86.7,213.5 -505.19,464.33 -851.43,542.67 -888.91,201.13 -1551.49,-500.12 -1399.95,-1330.96 67.59,-370.59 313.42,-791 542.83,-889.25 390.04,-657.14 2206.18,-658.94 2109.39,789.05 -17.1,255.89 -140.34,600.56 -301.06,793.62 -6.84,8.22 -28.02,31.7 -35.45,39.21 -41.83,42.31 -17.3,21.23 -64.33,55.66zm2368.63 -1898.3l359.63 -362.96 26.04 511.22 -385.67 -148.26zm4539.86 874.03l409.5 -1389.21 262.06 21.46 397.95 1484 -1069.51 -116.25zm-662.76 -1058.58c-137.86,-59.68 -239.61,-170.07 -329.28,-265.81 51.25,-68.91 134.27,-139.61 195.06,-210.1 90.9,-105.42 180.17,-36.54 288.95,-101.29l-154.73 577.2zm-8834.81 687.44c-58.08,216.66 -579.72,662.15 -828.07,782.92l503.41 2007.91 -213.47 60.59 -630.05 202.41 -1698.06 -3818.23 -421.31 190.52c-109.45,-135.71 -530.71,-841.66 -563.94,-971.81 -36.58,-35.81 -32.12,58.37 -44.75,-97 548.43,-249.72 648.07,-397.56 1378.26,-604.35 1839.83,-521.02 3290.5,295.02 2881.32,1610.22 -65.84,211.63 -196.08,543.99 -363.34,636.82zm8323.17 -1426.72c-96.87,122.33 -127.08,149.48 -259.7,270.86 -94.64,86.62 -166.66,181.21 -251.63,278.1 -166.69,190.06 -390.22,373.63 -520.96,566.04 207.71,42.31 391.53,-53.08 563.55,-95.76l147.88 -103.13c61.18,-70.36 136.77,-147.56 205.07,-203.57l638.52 545.1c-46.63,86.05 -95.59,142.22 -170.98,192.65 -473.09,490.63 -1648.43,798.35 -2385.98,355.01 -303.52,-182.45 -551.12,-529.85 -577.43,-1009.53 -26.29,-479.17 220.36,-982 495.82,-1097.74 120.9,-264.6 800.46,-451.73 1189.05,-444.11 461.18,9.05 905.54,226.1 1110.71,526.34l-183.92 219.74zm7510 -916.76l825.03 238.94 -1538.75 4688.67 -711.17 -198.59 1424.89 -4729.02zm-13342.04 478.3c-96.38,-40.87 -41.29,19.01 -64.97,-134.1 -9.86,-63.77 2.63,-134.3 10.51,-196.78l1242.8 -367.84c20.32,254.41 24.76,1122.46 107.65,1261.78 88.34,-140.26 676.36,-977.23 754.34,-1031.49 41.7,-124.41 65.16,-126.93 133.17,-224.82 146.31,87.79 799.09,733.48 906.88,852.52l-190.1 204.59c-83.4,101.55 -159.28,187.04 -249.28,282.83 -92.88,98.86 -177.34,157.72 -268.17,259.77 -121.63,136.66 -360.33,450.88 -521.18,533.55 47.09,111.64 -22.94,53.44 144.05,126.98l888.9 344.7c387.88,155.36 214.59,697.15 1543.9,957.83l0.19 835.2c-106.84,-33.2 -130.69,-40.88 -194.13,-116.24 -134.49,-16.09 -1231.05,-579.3 -1431.16,-679.94 -166.49,-83.73 -1343.34,-691.24 -1393.61,-684.07 -23.2,334.49 53.41,1345.05 -29.24,1569.33l-166.72 21.49 -591.23 82.21c-55.44,-885.26 -110.38,-386.19 106.27,-1001.43 168.37,-478.11 128.6,-1004.12 -150.63,-1430.2 -130.59,-199.27 -168.88,-89.72 -193.13,-398.52 -29.7,-378.26 -64.03,-744.85 -91.6,-1122.44l-303.51 55.09zm5403.7 -1338.34c-0.57,0.47 -965.54,568.34 -1063.32,463.46 -39.11,-124.77 735.41,-885.72 706.87,-952.68l130.45 -225.7c107.49,44.64 93.52,42.91 164.92,141.84l313.72 469.65 -252.64 103.43zm-1407.73 189.32c-86.39,111.5 -185.71,191.52 -252.9,308.7l254.92 326.77c-152.61,42.76 -285.35,141.24 -399.4,207.47 -417.54,221.36 -173.45,141.61 -903.86,-439.59l-636.03 -550.45 -459.28 842.41 -8.13 -816.25 -2004.92 646.94c-71.26,219.4 -8.92,679.27 -1.49,931.56l-1.34 193.94 368.35 -87.38 51.02 552.39 -408.25 -96.88c-568.26,-107.61 -903.4,120.84 -1289.91,311.29 87.75,-724.53 -108.83,-1208.12 -499.53,-1554.36 -401.06,-355.41 -859.6,-554.58 -1578.17,-578.66 -633.45,-21.23 -1270.72,128.34 -1792.98,331.11 -384.54,149.3 -1178.78,542.19 -1385.88,755.44l990 1678 386.28 -163.13 217.98 454.64 348.53 776.33 1137.51 2519.96 1433.09 -455.12 102.07 -25.43 -266.1 -1108.95c-75.63,-83.36 -63.22,-145.85 -80.38,-282.33l-185.83 -700.61 329.98 -239.06c10.25,384.48 61.17,527.39 183.26,842.82 182.32,332.02 424.06,585.16 860.08,715.71 218.55,65.44 473.28,81.61 713.87,44.34 250.3,-38.77 435.47,-156.27 617.97,-187.83 36.54,-56.76 368.76,-297.45 410.29,-323.7l70.43 657.48 1411.94 -207.7 37.19 -904.54 3.87 -397.75 3007.41 1470.39c46.6,-155.78 35.88,-1163.4 40.73,-1415.62 156.41,-64.22 463.24,-102.51 651.62,-161.95 230.31,-72.67 362.84,-122.38 527.28,-253.89l-490.53 1747.33 1072.56 68.2 363.28 -1386.46 1329.88 107.1 271.59 1326.77 612.29 37.26 16.95 220.82 1605.06 112.16 259.72 -2250.99c404.68,-17.45 793.48,-110.34 1141.69,-396.05l-802.7 2509.02 1489.77 491.56 1809.98 -5571.06 -1607.08 -525.09 -296.86 1010.89c-221.81,-1604.13 -2167.86,-2144.41 -4475.35,-1732.2l311.87 1766.76 -527.9 -1775.39 -929.9 -72.69 -551.29 2022.45c-467.05,-465.98 -1004.75,-790.56 -1655.41,-886.66l1183.92 -647.65c-100.29,-200.74 -292.87,-449.87 -414.56,-645.62 -144.87,-233.03 -285.87,-424.95 -427.61,-636.72l-11.1 0c-420.22,484.42 -893.1,990.94 -1279.56,1489.75z"/>
   <path class="fil3" d="M6128.48 8855.07c262.62,-26.38 412.55,-173.9 753.46,-45.12 483.77,182.74 479.95,782.01 185.36,1131.36 -87.9,104.23 -393.14,321.49 -429.7,387.17 -8.63,7.32 -20.1,15.39 -27.15,20.4l-97.59 65.16c-26.79,15.85 -50.22,25.51 -74.47,38.36 -96.29,-275.05 -177.83,-551.7 -264.82,-829.47 -137.63,-439.46 -252.85,-617.85 -45.09,-767.86zm-2412.63 -406.29c33.23,130.15 454.49,836.1 563.94,971.81l421.31 -190.52 1698.06 3818.23 630.05 -202.41 -492.59 -1887.32c61.56,-73.26 136.9,-121.73 202.65,-181.18 248.35,-120.77 769.99,-566.26 828.07,-782.92 204.56,-456.84 405.1,-931.42 95.93,-1437.4 -205.51,-336.34 -539.3,-630.73 -1066.69,-733.3 -559.75,-108.86 -1112.09,-62.02 -1637.24,78.55 -288.81,77.3 -1127.84,371.34 -1243.49,546.46z"/>
   <path class="fil3" d="M10058.47 8129.29l303.51 -55.09c27.57,377.59 61.9,744.18 91.6,1122.44 24.25,308.8 62.54,199.25 193.13,398.52 279.23,426.08 319,952.09 150.63,1430.2 -216.65,615.24 -161.71,116.17 -106.27,1001.43l591.23 -82.21c30.82,-257.66 9.82,-611.76 8.89,-880.18 -1.37,-394.47 -79.74,-558.43 187.07,-710.64 50.27,-7.17 1227.12,600.34 1393.61,684.07 200.11,100.64 1296.67,663.85 1431.16,679.94l12.47 -533.03c-457.57,-122.27 -940.35,-202.67 -1281.02,-696.37 -92.06,-133.41 -77.93,-181.54 -239.76,-254.65 -233.36,-105.44 -852.91,-315.13 -1025.38,-424.12 -4.79,-3.03 -14.78,-9.71 -21.7,-15.2 51.99,-77.34 96.81,-147.05 172.48,-225.1 160.85,-82.67 399.55,-396.89 521.18,-533.55 90.83,-102.05 175.29,-160.91 268.17,-259.77 90,-95.79 165.88,-181.28 249.28,-282.83 -40.82,-125.43 -106.88,-145.54 -202.88,-231.44 -82.43,-73.75 -124.41,-139.55 -204.96,-216.98 -126.43,-121.53 -306.53,-284.09 -442.11,-383.87 -77.98,54.26 -666,891.23 -754.34,1031.49 -64.22,93.16 -138.63,203.97 -208.48,242.63l-84.49 -1320.27 -1045.49 304.28 42.47 210.3z"/>
   <path class="fil3" d="M14252.03 9704.08l-135.36 59.35c-160.31,-156.86 -280.45,-349.63 -240.62,-669.06 23.11,-185.37 208.68,-524.28 311.77,-490.49 175.05,-90.05 263.18,-219.97 565.06,-204.57 217.74,11.11 401.44,124.82 482.19,228.55l-711.71 832.72c-186.2,188.23 -113.29,187.89 -271.33,243.5zm-477.36 -1438.3c-275.46,115.74 -522.11,618.57 -495.82,1097.74 26.31,479.68 273.91,827.08 577.43,1009.53 737.55,443.34 1912.89,135.62 2385.98,-355.01 -125.18,-63.64 -218.06,-189.73 -336.66,-284.21 -84.82,-67.57 -89.18,-74.14 -164.37,-153.6 -88.82,-93.86 -45.56,-86.22 -171.58,-96.37l-147.88 103.13c-121.37,202.35 -528.81,327.92 -751.31,288.62l187.76 -192.86c130.74,-192.41 354.27,-375.98 520.96,-566.04 84.97,-96.89 156.99,-191.48 251.63,-278.1 132.62,-121.38 162.83,-148.53 259.7,-270.86 -78.59,-249.34 -560.02,-507.28 -945.93,-553.47 -504.99,-60.45 -783.14,88 -1169.91,251.5z"/>
   <path class="fil3" d="M9170.24 9801.73c-194.28,317.07 263.37,681.96 556.72,458.32l19.76 -217.75 146.66 -168.36c101.66,-7.34 25.1,-11.41 52.37,37.63 203.08,462.39 -7.02,548.13 -168.43,807.41 -247.47,308.57 -702.48,404.3 -1049.8,126 -291.75,-233.76 -275.35,-702.94 -12.98,-922.33l49.91 -31.29c286.61,-255.56 173.01,-225.39 642.86,-324.74 115.41,39.74 17.78,-32.07 60.58,51.39 -114.06,66.61 -87.77,68.73 -177.41,165.78l-120.24 17.94zm-722.37 -89.39c-229.41,98.25 -475.24,518.66 -542.83,889.25 -151.54,830.84 511.04,1532.09 1399.95,1330.96 346.24,-78.34 764.73,-329.17 851.43,-542.67 94.06,-328.2 244.84,-431.92 219.1,-888.44 -18.5,-328.05 -165.8,-565.84 -330.18,-728.1 -447.1,-441.35 -1055.31,-360.06 -1597.47,-61z"/>
   <path class="fil4" d="M4602.19 11029.3l1199.35 2755.68c258.25,-38.96 676.78,-198.55 942.82,-286.34 314.03,-103.61 715.73,-176.37 875.69,-423.24l-1433.09 455.12 -1137.51 -2519.96c-276.68,-35.71 -222.15,139.81 -447.26,18.74z"/>
   <path class="fil1" d="M11824.82 11355.6c241.32,43.64 2541.65,1267.49 2657.33,1282.48 99.28,12.87 275.58,-91.34 340.25,-169.41l13.7 -40.43 -3007.41 -1470.39 -3.87 397.75z"/>
   <path class="fil5" d="M3715.85 8448.78c115.65,-175.12 954.68,-469.16 1243.49,-546.46 525.15,-140.57 1077.49,-187.41 1637.24,-78.55 527.39,102.57 861.18,396.96 1066.69,733.3 309.17,505.98 108.63,980.56 -95.93,1437.4 167.26,-92.83 297.5,-425.19 363.34,-636.82 409.18,-1315.2 -1041.49,-2131.24 -2881.32,-1610.22 -730.19,206.79 -829.83,354.63 -1378.26,604.35 12.63,155.37 8.17,61.19 44.75,97z"/>
   <path class="fil6" d="M6845.46 9729.57l-101.85 96.87c-110.45,-151.36 -156.94,-434.59 -213.12,-636l-18.23 -120.89c501.28,-37.51 557.98,306.47 333.2,660.02zm-716.98 -874.5c42.31,265.49 139.31,516.81 215.55,774.87 34.45,116.64 73.8,236.7 108.68,349.78 47.9,155.27 42.23,298.75 184.89,348.76 36.56,-65.68 341.8,-282.94 429.7,-387.17 294.59,-349.35 298.41,-948.62 -185.36,-1131.36 -340.91,-128.78 -490.84,18.74 -753.46,45.12z"/>
   <path class="fil5" d="M14303.03 11717.77c63.44,75.36 87.29,83.04 194.13,116.24l-0.19 -835.2c-1329.31,-260.68 -1156.02,-802.47 -1543.9,-957.83l-888.9 -344.7c-166.99,-73.54 -96.96,-15.34 -144.05,-126.98 -75.67,78.05 -120.49,147.76 -172.48,225.1 6.92,5.49 16.91,12.17 21.7,15.2 172.47,108.99 792.02,318.68 1025.38,424.12 161.83,73.11 147.7,121.24 239.76,254.65 340.67,493.7 823.45,574.1 1281.02,696.37l-12.47 533.03z"/>
   <path class="fil2" d="M8764.45 9891.36c-235.25,758.92 336.92,1075.47 1012.87,827.62 161.41,-259.28 371.51,-345.02 168.43,-807.41 -76.34,209.1 -8.51,254.41 -218.79,348.48 -293.35,223.64 -751,-141.25 -556.72,-458.32 34.4,-120.75 -2.02,-65.5 93.22,-131.39 37.7,-26.08 36.22,-15.49 71.24,-39.27l72.61 -64.45c-469.85,99.35 -356.25,69.18 -642.86,324.74z"/>
   <path class="fil7" d="M7375.64 11658.69c17.16,136.48 4.75,198.97 80.38,282.33 54.42,-10.69 53.48,58.68 189.19,197.22 706.35,721.07 1689.12,539.29 2249.76,-4.18 -182.5,31.56 -367.67,149.06 -617.97,187.83 -240.59,37.27 -495.32,21.1 -713.87,-44.34 -436.02,-130.55 -677.76,-383.69 -860.08,-715.71 -166.54,-10.48 -218.18,40.79 -327.41,96.85z"/>
   <path class="fil8" d="M14770.01 8778.76c-54.04,116.95 -159.34,195.87 -239.95,299.99 -98.43,127.12 -164.34,236.57 -242.66,221.76 -99.92,-222.49 -17.28,-428.23 130.12,-512.57 99.08,-155.75 265.77,-147.36 446.57,-111.19l-94.08 102.01zm-582.19 -174.88l-67.6 99.53c-23.72,34.27 -44.96,63.77 -65.98,110.19 -188.21,415.76 52.1,685.13 197.79,890.48 158.04,-55.61 85.13,-55.27 271.33,-243.5l711.71 -832.72c-80.75,-103.73 -264.45,-217.44 -482.19,-228.55 -301.88,-15.4 -390.01,114.52 -565.06,204.57z"/>
   <path class="fil5" d="M8447.87 9712.34c542.16,-299.06 1150.37,-380.35 1597.47,61 164.38,162.26 311.68,400.05 330.18,728.1 25.74,456.52 -125.04,560.24 -219.1,888.44 47.03,-34.43 22.5,-13.35 64.33,-55.66 7.43,-7.51 28.61,-30.99 35.45,-39.21 160.72,-193.06 283.96,-537.73 301.06,-793.62 96.79,-1447.99 -1719.35,-1446.19 -2109.39,-789.05z"/>
   <path class="fil7" d="M9894.97 12134.06c77.51,18.07 57.68,114.75 67.3,232.43 8.69,106.34 16.92,201.47 22.34,306.77 477.55,-53.58 1534.43,-136.49 1803.02,-413.12l-1411.94 207.7 -70.43 -657.48c-41.53,26.25 -373.75,266.94 -410.29,323.7z"/>
   <path class="fil3" d="M15462.17 6790.95c-5.7,-113.15 -94.76,-177.14 -158.28,-264.63 -59.65,-82.16 -121.36,-231.1 -205.25,-255.87l-592.76 678.91c-99.45,114.98 -178.85,172.02 -107.03,305.05 97.78,104.88 1062.75,-462.99 1063.32,-463.46z"/>
   <path class="fil5" d="M7029.21 12845.89l213.47 -60.59 -503.41 -2007.91c-65.75,59.45 -141.09,107.92 -202.65,181.18l492.59 1887.32z"/>
   <path class="fil5" d="M13774.67 8265.78c386.77,-163.5 664.92,-311.95 1169.91,-251.5 385.91,46.19 867.34,304.13 945.93,553.47l183.92 -219.74c-205.17,-300.24 -649.53,-517.29 -1110.71,-526.34 -388.59,-7.62 -1068.15,179.51 -1189.05,444.11z"/>
   <path class="fil5" d="M10058.47 8129.29l-42.47 -210.3 1045.49 -304.28 84.49 1320.27c69.85,-38.66 144.26,-149.47 208.48,-242.63 -82.89,-139.32 -87.33,-1007.37 -107.65,-1261.78l-1242.8 367.84c-7.88,62.48 -20.37,133.01 -10.51,196.78 23.68,153.11 -31.41,93.23 64.97,134.1z"/>
   <path class="fil9" d="M4264.76 10291.36l337.43 737.94c225.11,121.07 170.58,-54.45 447.26,-18.74l-348.53 -776.33c-256.53,-16.17 -229.58,67.5 -436.16,57.13z"/>
   <path class="fil5" d="M9777.32 10718.98c-675.95,247.85 -1248.12,-68.7 -1012.87,-827.62l-49.91 31.29c-262.37,219.39 -278.77,688.57 12.98,922.33 347.32,278.3 802.33,182.57 1049.8,-126z"/>
   <path class="fil5" d="M12108.8 7660.86c135.58,99.78 315.68,262.34 442.11,383.87 80.55,77.43 122.53,143.23 204.96,216.98 96,85.9 162.06,106.01 202.88,231.44l190.1 -204.59c-107.79,-119.04 -760.57,-764.73 -906.88,-852.52 -68.01,97.89 -91.47,100.41 -133.17,224.82z"/>
   <path class="fil5" d="M11282.3 11944.58l166.72 -21.49c82.65,-224.28 6.04,-1234.84 29.24,-1569.33 -266.81,152.21 -188.44,316.17 -187.07,710.64 0.93,268.42 21.93,622.52 -8.89,880.18z"/>
   <path class="fil10" d="M7375.64 11658.69c109.23,-56.06 160.87,-107.33 327.41,-96.85 -122.09,-315.43 -173.01,-458.34 -183.26,-842.82l-329.98 239.06 185.83 700.61z"/>
   <path class="fil5" d="M6637.6 10328.48c-142.66,-50.01 -136.99,-193.49 -184.89,-348.76 -34.88,-113.08 -74.23,-233.14 -108.68,-349.78 -76.24,-258.06 -173.24,-509.38 -215.55,-774.87 -207.76,150.01 -92.54,328.4 45.09,767.86 86.99,277.77 168.53,554.42 264.82,829.47 24.25,-12.85 47.68,-22.51 74.47,-38.36l97.59 -65.16c7.05,-5.01 18.52,-13.08 27.15,-20.4z"/>
   <path class="fil5" d="M15569.65 9483.86c126.02,10.15 82.76,2.51 171.58,96.37 75.19,79.46 79.55,86.03 164.37,153.6 118.6,94.48 211.48,220.57 336.66,284.21 75.39,-50.43 124.35,-106.6 170.98,-192.65l-638.52 -545.1c-68.3,56.01 -143.89,133.21 -205.07,203.57z"/>
   <path class="fil11" d="M4096.66 9942.72c-54.41,134.92 -194.85,198.53 -292.95,315.56l362.72 -137.99 98.33 171.07c206.58,10.37 179.63,-73.3 436.16,-57.13l-217.98 -454.64 -386.28 163.13z"/>
   <path class="fil7" d="M9642.01 8631.77c-47.8,34.55 -82.96,33.93 -120.13,59.54 -99.32,68.42 -133.16,32.36 -203.17,117.98l305.93 -63.15 28.49 253.76 408.25 96.88 -51.02 -552.39 -368.35 87.38z"/>
   <path class="fil12" d="M2792.5 8557.35l-15.14 14.47 15.14 19.99 232.5 304.79c13.27,-73.39 -12.4,-19.37 35.07,-73.38 39.16,-44.56 23.51,-26.93 77.53,-56.98 112.03,-62.32 139.58,-30.85 197.98,-156.01l-216.84 -357.69c-125.88,72.81 -222.58,206.66 -326.24,304.81z"/>
   <path class="fil13" d="M3346.31 9488.64l242.22 361.02c73.59,-38.27 85.29,-35.96 158.08,-54.85 118.15,-30.68 137.28,-44.24 222.28,-74.94 -31.89,-64.69 -74.63,-142.16 -101.1,-188.58l-114.27 -171.38c-165.51,51.59 -221.86,108.76 -407.21,128.73z"/>
   <path class="fil7" d="M13422.45 7466.07c87.78,122.98 157.42,226.13 234.61,357.14 114.05,-66.23 246.79,-164.71 399.4,-207.47l-254.92 -326.77c-81.86,28.65 -102.84,46.42 -173.19,80.89 -148.65,72.82 -155.89,-21.5 -205.9,96.21z"/>
   <path class="fil5" d="M15085.89 6285.06c83.89,24.77 158.35,159.1 218,241.26 63.52,87.49 152.58,151.48 158.28,264.63l252.64 -103.43 -313.72 -469.65c-71.4,-98.93 -57.43,-97.2 -164.92,-141.84l-150.28 209.03z"/>
   <path class="fil0" d="M3159.04 9132.22l187.27 356.42c185.35,-19.97 241.7,-77.14 407.21,-128.73l-210.05 -382.85c-150.82,167.89 -229.27,60.67 -384.43,155.16z"/>
   <path class="fil14" d="M13443.62 7418.57c55.43,29.42 298.06,-108.65 357.92,-129.6 67.19,-117.18 166.51,-197.2 252.9,-308.7 111,-143.27 1185.78,-1326.37 1279.56,-1489.75l-165 -18.03c-115,39.63 -1606.53,1804.91 -1725.38,1946.08z"/>
   <path class="fil14" d="M3588.53 9849.66l215.18 408.62c98.1,-117.03 238.54,-180.64 292.95,-315.56l-127.77 -222.85c-85,30.7 -104.13,44.26 -222.28,74.94 -72.79,18.89 -84.49,16.58 -158.08,54.85z"/>
   <path class="fil10" d="M3025 8896.6l134.04 235.62c159.2,-86.79 241.94,28.53 384.43,-155.16l-208.25 -369.19c-58.4,125.16 -85.59,96.05 -197.62,158.37 -54.02,30.05 -38.37,12.42 -77.53,56.98 -47.47,54.01 -21.8,-0.01 -35.07,73.38z"/>
   <path class="fil4" d="M11649.76 6859.33l8.13 816.25 459.28 -842.41c-128.79,50.46 -357.68,155.13 -418.17,269.07 -10.35,-75.86 -1.32,-172.48 -49.24,-242.91z"/>
   <path class="fil15" d="M14770.01 8778.76l-352.49 9.18c-147.4,84.34 -230.04,290.08 -130.12,512.57 78.32,14.81 144.23,-94.64 242.66,-221.76 80.61,-104.12 185.91,-183.04 239.95,-299.99z"/>
   <path class="fil16" d="M14252.03 9704.08c-145.69,-205.35 -386,-474.72 -197.79,-890.48 21.02,-46.42 42.26,-75.92 65.98,-110.19l67.6 -99.53c-103.09,-33.79 -288.66,305.12 -311.77,490.49 -39.83,319.43 80.31,512.2 240.62,669.06l135.36 -59.35z"/>
   <path class="fil17" d="M9618.51 7820.83l-17.37 314.88 -317.7 8.37 -31.99 32.37 10.64 490.11 3.82 106.49 52.8 36.24 0.05 -359.33 324.59 -12.13c-7.43,-252.29 -69.77,-712.16 1.49,-931.56l-37.27 26.56 10.94 288z"/>
   <path class="fil18" d="M6530.49 9190.44c366.5,54.77 280.43,237.31 297.66,460.18 6.02,77.86 2.24,41.25 17.31,78.95 224.78,-353.55 168.08,-697.53 -333.2,-660.02l18.23 120.89z"/>
   <path class="fil15" d="M6845.46 9729.57c-15.07,-37.7 -11.29,-1.09 -17.31,-78.95 -17.23,-222.87 68.84,-405.41 -297.66,-460.18 56.18,201.41 102.67,484.64 213.12,636l101.85 -96.87z"/>
   <polygon class="fil19" points="9283.44,8144.08 9601.14,8135.71 9618.51,7820.83 9283.44,7831.12 "/>
   <polygon class="fil12" points="9251.45,8176.45 9341.65,8144.08 9341.65,7831.12 9618.51,7820.83 9607.57,7532.83 9246.66,7709.76 "/>
   <polygon class="fil15" points="12910.72,9639.84 12884.68,9128.62 12525.05,9491.58 "/>
   <path class="fil20" d="M9318.71 8809.29c104.6,-53.05 228.42,-108.94 323.3,-177.52l1.34 -193.94 -324.59 12.13 -0.05 359.33z"/>
   <path class="fil4" d="M16550.03 8686c-108.78,64.75 -229.57,63.52 -320.47,168.94 -60.79,70.49 -105.44,117.37 -156.69,186.28 89.67,95.74 162.95,251.02 300.81,310.7l176.35 -665.92z"/>
   <path class="fil16" d="M14858.22 9682.75l-187.76 192.86c222.5,39.3 629.94,-86.27 751.31,-288.62 -172.02,42.68 -355.84,138.07 -563.55,95.76z"/>
   <path class="fil16" d="M9726.96 10260.05c210.28,-94.07 142.45,-139.38 218.79,-348.48 -27.27,-49.04 49.29,-44.97 -52.37,-37.63l-146.66 168.36 -19.76 217.75z"/>
   <path class="fil18" d="M14417.52 8787.94l352.49 -9.18 94.08 -102.01c-180.8,-36.17 -347.49,-44.56 -446.57,111.19z"/>
   <path class="fil21" d="M9170.24 9801.73l120.24 -17.94c89.64,-97.05 63.35,-99.17 177.41,-165.78 -42.8,-83.46 54.83,-11.65 -60.58,-51.39l-72.61 64.45c-35.02,23.78 -33.54,13.19 -71.24,39.27 -95.24,65.89 -58.82,10.64 -93.22,131.39z"/>
   <path class="fil3" d="M21706.39 8138.05c419.98,349.21 209.58,946.18 -204.96,1193.41 -211.43,126.08 -557.92,255.03 -804.07,293.44 -2.35,-550.95 30.01,-1111.05 54.29,-1662.1 4.77,-108.09 764.04,16.68 954.74,175.25zm-3036.39 -1452.04c-11.69,141.39 165.51,991.41 228,1164.63l486.3 -44.97 199.07 4598.44 899.88 36.28 211.76 -2239.25c86.72,-51.91 168.06,-21.41 254.2,-58.1 289.57,-34.94 1090.94,-336.93 1223.61,-533.21 361.72,-385.57 535.03,-843.16 400.8,-1454.89 -89.23,-406.64 -320.97,-815.61 -812.15,-1099.83 -521.31,-301.64 -1088.89,-445.29 -1661.64,-485.99 -314.98,-22.39 -1254,-18.07 -1429.83,116.89z"/>
   <path class="fil3" d="M24283.75 7911.1l-1054.71 -321.06 -230.03 831.86c20.68,561.65 -104.75,1041.59 -408.61,1504.45l-755.01 2421.9 933.42 317.66 1514.94 -4754.81z"/>
   <polygon class="fil3" points="17997.24,6776.08 17402.92,6756.61 15919.24,12070.28 16477.02,12126.16 16894.17,10701.68 18477.21,10818.26 18822.38,12298.63 19423.22,12311.21 "/>
   <path class="fil14" d="M13443.62 7418.57c55.43,29.42 298.06,-108.65 357.92,-129.6 67.19,-117.18 166.51,-197.2 252.9,-308.7 111,-143.27 1185.78,-1326.37 1279.56,-1489.75l-165 -18.03c-115,39.63 -1606.53,1804.91 -1725.38,1946.08z"/>
   <path class="fil0" d="M16436.06 8103.22c77.68,65.69 151.64,133.86 222.7,203.95l551.29 -2022.45 -240.58 97.68 -533.41 1720.82z"/>
   <path class="fil0" d="M15351.26 12146.06c77.68,65.69 151.64,133.86 222.7,203.95l481.77 -1753.23c-88.07,76.28 -132.71,91.44 -250.19,154.12l-454.28 1395.16z"/>
   <path class="fil1" d="M18290.79 12361.06c98.92,23.75 216.73,68.01 311.71,98.66l-271.58 -1326.77 -230.59 -18.57 190.46 1246.68z"/>
   <polygon class="fil0" points="19136.73,8143.25 18667.85,8206.88 19306.08,10986.11 "/>
   <path class="fil0" d="M15351.26 12146.06c77.68,65.69 151.64,133.86 222.7,203.95l481.77 -1753.23c-88.07,76.28 -132.71,91.44 -250.19,154.12l-454.28 1395.16z"/>
   <path class="fil5" d="M18676.79 6795.47c182.69,-103.25 1235.3,-54.01 1527.63,8.67 531.56,113.95 1044.65,323.73 1493.45,675.51 422.86,331.45 586,745.53 615.83,1138.56 44.89,591.26 -529.58,1091.24 -919.71,1404.84 204.61,-3.21 726.19,-273.65 855.27,-499.18 973.07,-1154.96 88.28,-2695.1 -1793.1,-2915.5 -1102.93,-188.45 -1751.88,41.53 -1786.16,77.64l6.79 109.46z"/>
   <path class="fil5" d="M20261.95 12433.46l221.52 12.98 211.53 -2245.29c-81.64,34.52 -176.54,48.55 -258.77,97.49l-174.28 2134.82z"/>
   <polygon class="fil5" points="22536.27,12586.77 22768.81,12665.91 24283.75,7911.11 23992.27,7822.38 "/>
   <path class="fil2" d="M17517.27 9058.68c-652.95,452.72 -397.41,1054.61 287.67,1275.98 286.9,-104.73 505.2,-42.78 630.21,-532.09 -188.98,117.64 -163.48,195.12 -387.06,139.62 -368.84,-4.65 -504.4,-574.05 -156,-704.03 101.5,-73.9 38.77,-52.83 154.38,-46.03 45.77,2.7 38.07,10.12 80.31,12.98l96.9 -6.02c-431.26,-211.3 -323.2,-165.05 -706.41,-140.41z"/>
   <path class="fil5" d="M17804.94 10334.66c-685.08,-221.37 -940.62,-823.26 -287.67,-1275.98l-58.59 -6.11c-341.82,11.09 -643.87,370.49 -558.16,734.38 102.03,433.21 519.37,638.22 904.42,547.71z"/>
   <path class="fil16" d="M18048.09 9942.19c223.58,55.5 198.08,-21.98 387.06,-139.62 8.75,-55.42 66.53,-5.04 -18.05,-61.9l-219.26 42.21 -149.75 159.31z"/>
   <path class="fil21" d="M17892.09 9238.16l105.75 59.97c130.4,-21.19 111,-39.06 241.88,-21.23 17.73,-92.1 50.36,24.61 -16.04,-77.81l-96.9 6.02c-42.24,-2.86 -34.54,-10.28 -80.31,-12.98 -115.61,-6.8 -52.88,-27.87 -154.38,46.03z"/>
  </g>
 </g>
</svg>
