<?xml version="1.0" encoding="UTF-8"?>
<!DOCTYPE svg PUBLIC "-//W3C//DTD SVG 1.1//EN" "http://www.w3.org/Graphics/SVG/1.1/DTD/svg11.dtd">
<!-- Creator: CorelDRAW 2020 (64-Bit) -->
<svg xmlns="http://www.w3.org/2000/svg" xml:space="preserve" width="297mm" height="210mm" version="1.1" style="shape-rendering:geometricPrecision; text-rendering:geometricPrecision; image-rendering:optimizeQuality; fill-rule:evenodd; clip-rule:evenodd"
viewBox="0 0 29700 21000"
 xmlns:xlink="http://www.w3.org/1999/xlink"
 xmlns:xodm="http://www.corel.com/coreldraw/odm/2003">
 <defs>
  <style type="text/css">
   <![CDATA[
    .fil35 {fill:#606062}
    .fil9 {fill:#2C899F}
    .fil4 {fill:#33B49E}
    .fil32 {fill:#34334B}
    .fil6 {fill:#3494B6}
    .fil29 {fill:#421E02}
    .fil8 {fill:#42444D}
    .fil34 {fill:#451E01}
    .fil5 {fill:#5CA3B6}
    .fil23 {fill:#629DAA}
    .fil3 {fill:#6EAFCF}
    .fil13 {fill:#766254}
    .fil7 {fill:#82C9BE}
    .fil15 {fill:#8EC4A0}
    .fil0 {fill:silver}
    .fil17 {fill:#CDBDA6}
    .fil36 {fill:#D1D8D8}
    .fil24 {fill:#D5CDB7}
    .fil11 {fill:#D66D59}
    .fil12 {fill:#DF6A56}
    .fil25 {fill:#E0C170}
    .fil30 {fill:#E17F86}
    .fil31 {fill:#E23D5E}
    .fil26 {fill:#E5D6BA}
    .fil37 {fill:#E5E3E2}
    .fil19 {fill:#E5E5E5}
    .fil14 {fill:#E7D7BC}
    .fil27 {fill:#EE5465}
    .fil2 {fill:#F0E0BD}
    .fil20 {fill:#F2E2E1}
    .fil1 {fill:#F5B495}
    .fil16 {fill:#F5D8C4}
    .fil10 {fill:#FDDEA7}
    .fil33 {fill:#FDFDFF}
    .fil28 {fill:#FDFEFE}
    .fil21 {fill:#FEDB7E}
    .fil22 {fill:#FFDC7F}
    .fil18 {fill:#FFE4A9}
   ]]>
  </style>
 </defs>
 <g id="Capa_x0020_1">
  <metadata id="CorelCorpID_0Corel-Layer"/>
  <path class="fil0" d="M13571.11 14843.99c-653.19,31.04 -1226.69,-162.3 -1891.79,-310.72l-112.43 -634.03c8.08,531.02 39.82,1148.04 28.2,1592.15 -12.37,471.65 58.07,1056.94 43.44,1659.93 597.81,170.29 5518.84,52.46 6494.42,-3.38 182.66,-479.43 172.92,-2968.24 138.53,-3743.76l-656.39 -25.22 -2184.56 3.83 6.94 184.47c73.24,-34.51 75.35,-60.33 251.41,-71.01l174.09 217.71c-1.21,24.22 -9.51,110.56 -12.89,136.23l45.19 642.93c135.81,318.44 233.22,-24.97 277.78,511.93l2.44 258.01c-356.75,28.81 -2489.9,-241.57 -2604.38,-419.07z"/>
  <path class="fil1" d="M17517.17 13379.14l754.31 25.04 18.88 1981.08 305.46 570.18 -321.57 13.33 -127.18 1139.87c777.66,6.69 1253.47,14.38 1590.55,-92.52 528.88,-167.76 476.54,-552.92 300.1,-997.55 -187.49,-472.37 -439.89,-1046.25 -851.96,-1797.22l-1145 -2496.8c-327.57,374.33 -618.86,1119.17 -523.59,1654.59z"/>
  <path class="fil2" d="M21318.29 12276.13c-369.5,-285.16 -515.09,-384.96 -929.33,-596.45l-264.29 155.96 1131.6 747.13 62.02 -306.64z"/>
  <path class="fil3" d="M20387.2 11692.01l929.33 596.45c193.64,-77.89 333.79,-198.94 350.33,-223.62 50.98,-76.11 189.71,-640.61 238.13,-769.69 874.01,249.02 1754.87,490.32 2596.78,819.71l61.93 -263.6 -2557.83 -731.17c-324.41,-193.94 -451.2,-303.32 -929.73,-380.03l-400.46 349.62c-307.76,306.92 -267.48,180.43 -288.48,602.33z"/>
  <path class="fil4" d="M22829.98 16651.33l322.78 15.14c181.06,-6.63 341.51,-16.13 526.85,-16.13l107.37 -531.6c-169.93,-252.94 -128.78,-110.28 -235.57,-447.88l341.18 -296.59c0.66,-137.8 1.33,-275.63 1.99,-413.43 -47.03,-27.87 -104.41,-37.01 -169.02,-33.12l-789.33 20.6c-69.9,1.72 -107.16,23.83 -120.61,60.85l14.36 1642.16z"/>
  <path class="fil5" d="M22493.2 16651.33c-216.83,71.46 -273.21,222.45 -224.28,425.68l2613.09 0c-291.82,-478.11 -314.69,-171.68 -736.57,-425.8l-20.27 -554.07 -338.19 21.6 -110.44 526.74 -1183.34 5.85z"/>
  <path class="fil3" d="M23894.58 14960.84l-1.99 413.43 335.06 69.29c37.1,-554.52 568.39,-2467.64 749.75,-2921.34l-279.88 53.46c-116.35,396.56 -236.24,800.67 -347.55,1250.27 -160.82,649.51 -88.48,679.56 -455.39,1134.89z"/>
  <path class="fil6" d="M21076.14 10740.06c467.4,70.07 546.25,170.22 889.82,358.04l137.95 -877.39c-19.28,-131.98 -108.75,-176.05 -236.21,-94.03l-791.56 613.38z"/>
  <path class="fil7" d="M22493.2 16651.33l340.73 -0.66 -15.96 -1647.3 -259.28 5.8c-48.53,13.27 -65.91,40.96 -68.62,75.41l3.13 1566.75z"/>
  <path class="fil6" d="M24501.77 12114.86l195.75 460.82 279.88 -53.46c344.56,-493.4 243.29,-641.27 -413.7,-670.96l-61.93 263.6z"/>
  <path class="fil8" d="M23305.54 14938.67l368.21 -9.63 98.04 -776.33c-109.71,-38.4 -228.06,-51.91 -358.95,-28.57l-107.3 814.53z"/>
  <ellipse class="fil9" cx="23955.22" cy="15740.22" rx="429.85" ry="420.69"/>
  <ellipse class="fil6" cx="23973" cy="15730.3" rx="254.48" ry="249.05"/>
  <polygon class="fil10" points="22752.57,12590.95 22940.41,12564.81 22817.35,12328.2 "/>
  <polygon class="fil11" points="22793.78,12423.74 22862.01,12414.09 22817.36,12328.2 "/>
  <path class="fil8" d="M22934.38 14948.21l164.2 -4.14 -158.18 -2379.27c-54.27,-0.34 -136.26,-4.21 -187.84,26.15l181.82 2357.26z"/>
  <polygon class="fil10" points="23906.65,13084.97 24095.95,13096.42 24022.02,12840.18 "/>
  <polygon class="fil11" points="23980.06,12929.19 24048.86,12933.19 24022.04,12840.18 "/>
  <path class="fil11" d="M23673.74 14929.06l161.75 7.51 260.46 -1840.15c-53.13,-11.06 -132.75,-31.04 -189.3,-11.45l-232.91 1844.09z"/>
  <ellipse class="fil6" cx="22670.89" cy="15542.31" rx="50.82" ry="49.73"/>
  <ellipse class="fil6" cx="22663.85" cy="15802.61" rx="50.82" ry="49.73"/>
  <ellipse class="fil6" cx="22662.96" cy="16066.17" rx="50.82" ry="49.73"/>
  <ellipse class="fil6" cx="22672.2" cy="16325.47" rx="50.82" ry="49.73"/>
  <path class="fil12" d="M3915.94 14655.61c4.78,-4.95 1.17,-1.88 8.55,-6.64l101.85 -49.86c87.27,-41.72 264.07,-115.28 352.08,-137.86 24.4,308.42 38.21,431.81 15.72,751.05l-216.8 56.73c-56.18,14.79 -159.65,51.94 -217.88,53.71 -17.83,6.64 -30.73,-5.71 -30.4,22.07l360.91 8.59c41.09,0.09 34.57,0.15 67.19,-15.23 18.99,-8.95 39.76,-21.92 58.71,-23.89l4.8 -4.47c5.05,-12.34 29.31,-6.98 57.61,-6.94l1467.04 3.65c168.42,0.09 347.06,-5.06 514.14,1.24l14.25 99.95c23,13.91 80.39,-0.85 101.49,11.04 61.63,-6.94 244.85,10.45 276.61,4.87 13.71,-2.4 170.82,-89.14 186.98,-98.09 51.2,-28.36 43.4,-14.94 50.18,-46.71 32.09,-150.45 44.31,-279.26 39.61,-437.48 -2.18,-73.51 -19.77,-282.51 -45.99,-335.19l-798.44 -24.16 -1221.55 -36.58c-15.08,-0.29 -189.12,-1.66 -202.29,-8.89 -16.59,4.45 -400.74,-5.57 -456.02,-10.7 -57.16,-5.31 -451.64,165.32 -502.96,200.68 -19.7,13.57 -7.46,36.79 14.61,29.11z"/>
  <path class="fil13" d="M4123.28 16765.53l46.4 -0.58c4.99,18.24 4.87,165.09 0.25,184.4l-45.46 -0.31 -1.19 -183.51zm-151.46 -0.01l46.78 -1.41 1.29 184.9 -47.16 -0.47 -0.91 -183.02zm46.55 318.14l2217.61 6.17 33.05 -1.12 91.96 -0.34 32.06 0.24 225.33 1.4c40.26,-2.7 164.05,9.09 188.72,-3.83 12.06,-25.37 0.14,-374.36 4.85,-441.38 6.37,-0.04 157.04,3.69 160.02,-3.73 0.51,-1.28 1.97,-0.97 2.8,-1.68 -559.96,-6.34 -1127.3,4 -1689.41,-3.5 -280.82,-3.74 -563.8,-0.46 -844.91,-0.87l-634.86 -0.86c-47.03,0.16 -163.91,-14.98 -204.25,-1.07 -2.99,48.24 -5.1,425.7 1.35,445.76 28.17,12.89 351.38,2.15 415.68,4.81z"/>
  <path class="fil4" d="M4485.44 16421.96c-20.12,68.28 -123.35,41.66 -101.42,-30.98 17.14,-56.7 124.37,-46.88 101.42,30.98zm2484.44 -226.71c-158.84,-2.35 -319.72,2.4 -478.18,-1.8 -41.17,-1.11 -26.66,7.47 -58.59,8.56 -104.99,3.63 -306.06,-1.04 -416.33,-1.07 -316.94,-0.12 -634.45,-3.96 -951.33,-2.04 -67.37,2.08 -642.37,5.11 -656.39,-5.36l-86 -5.44 -554.13 -2.06 -4.37 490.37 3213.42 -36.71c0.29,-6.18 2.45,-421.26 -2.56,-435.44 -4.24,-12 3.71,-1.61 -5.54,-9.01z"/>
  <path class="fil14" d="M5046.18 16194.46l19.26 4.45c316.88,-1.93 634.4,1.91 951.34,2.02 110.26,0.04 311.34,4.7 416.32,1.08 31.94,-1.1 17.44,-9.66 58.59,-8.57 158.48,4.22 319.35,-0.54 478.19,1.81 -14.92,-7.39 -450.95,-4.87 -511,-5.99 21.33,-92.84 27.8,-221.17 33.74,-319.26 3.18,-52.42 5.28,-318.65 -9.05,-348l1.58 22.08 -1430.87 -128.34 -0.7 690.95c0.24,20.19 5.37,75.3 -7.4,87.77z"/>
  <path class="fil15" d="M5300.1 14206.67c-16.01,-132.6 136.29,-207.07 222.85,-128.28 100.24,91.23 43.1,235.07 -66.62,248.69 -79.29,9.85 -147.88,-51.29 -156.23,-120.41zm-449.29 -148.54c15.87,-26.39 170.64,-133.03 204.13,-139.93 2.4,88.62 9.59,173.03 11.29,263.25 1.67,88.46 -0.72,176.37 -3.63,263.96l1221.55 36.58c-8.29,-20.73 3.92,-102.95 5.95,-131.52 8.88,-125.18 -2.64,-282.16 -17.42,-404.15 -132.62,-9.51 -267.56,-11.36 -401.06,-19.41l-810.07 -38.42c-18.5,1.15 -111.7,65.14 -129.79,78.27 -21.72,15.77 -39.05,28.9 -59.3,45.6 -7.28,6.01 -24.46,17.36 -30.26,24.84 -9.38,12.11 -11.62,29.61 8.61,20.93z"/>
  <path class="fil16" d="M3915.94 14655.61c20.93,-0.42 7.08,-1.55 15.03,10.18 0.78,1.13 5.84,17.77 6.06,18.52 54.15,180.18 69.4,367.79 38.65,554.17 -4.76,28.8 -14.73,54.95 -16.22,84.26 58.23,-1.77 161.7,-38.92 217.88,-53.71l216.8 -56.73c22.49,-319.24 8.68,-442.63 -15.72,-751.05 -88.01,22.58 -264.81,96.14 -352.08,137.86l-101.85 49.86c-7.38,4.76 -3.77,1.69 -8.55,6.64z"/>
  <path class="fil17" d="M4421.1 16193.61l-12.05 -0.07c14.02,10.47 589.02,7.44 656.39,5.37l-19.26 -4.45 -317.54 -3c-101.76,8.16 -83.69,11.55 -83.79,-109.99 -0.02,-36.44 0.36,-72.86 0.15,-109.3 -0.77,-136.41 -3.97,-547.76 6.24,-659.74l82.82 0 0.66 72.68 225.75 19.15 -0.4 -92.6 90.31 0.26c0.05,27.29 4.58,84.76 -2.23,101.96l-0.6 1.65 6.73 0.21 1430.87 128.34 -1.58 -22.08 -9.97 -104.92 101.6 1.67c-21.1,-11.89 -78.49,2.87 -101.49,-11.04l-14.25 -99.95c-167.08,-6.3 -345.72,-1.15 -514.14,-1.24l-1467.04 -3.65c-28.3,-0.04 -52.56,-5.4 -57.61,6.94 4.26,10.13 -2.54,23.59 3.88,48.53l219.32 19.67c6.58,33.43 1.57,621.58 1.58,720.27 0.01,29.53 -7.61,79.16 0.95,94.94l-225.3 0.39z"/>
  <path class="fil14" d="M4421.1 16193.61l225.3 -0.39c-8.56,-15.78 -0.94,-65.41 -0.95,-94.94 -0.01,-98.69 5,-686.84 -1.58,-720.27l-219.32 -19.67c-6.42,-24.94 0.38,-38.4 -3.88,-48.53l-4.8 4.47c18.59,23.51 -9.22,846.15 5.23,879.33z"/>
  <path class="fil18" d="M4728.64 16191.46l317.54 3c12.77,-12.47 7.64,-67.58 7.4,-87.77l0.7 -690.95 -6.73 -0.21c1.26,83.57 5.5,747.44 -3.46,768.97 -5.94,6.65 -64.84,4.73 -69.53,3.78 -9.63,-1.96 -6.55,-1.54 -10.8,-3.8 -9.78,-10.75 -2.72,-343.11 -2.72,-384.65 0,-130.81 1.12,-262.01 0.53,-392.74l-1.1 -2.83 -225.75 -19.15c-5.53,60.8 -1.24,141.54 -1.17,204.54 0.08,67.25 -0.12,134.51 -0.11,201.77 0.01,67.92 6.71,360.34 -4.8,400.04z"/>
  <path class="fil19" d="M4289.97 15353.4l18.37 9.26 -31.19 11.66c-2.12,34.8 17.86,155.73 22.4,200.35 7.19,70.48 10.75,140.64 11.82,212.55 1.11,75.38 -1.42,142.3 -9.34,214.09 -3.11,28.19 -9.46,65.05 -16.9,92.84 -8.1,30.22 -21.55,58.78 -27.55,82.12 20.67,2.53 51.1,1.98 65.49,11.84l85.98 5.43 12.05 0.07c-14.45,-33.18 13.36,-855.82 -5.23,-879.33 -18.95,1.97 -39.72,14.94 -58.71,23.89 -32.62,15.38 -26.1,15.32 -67.19,15.23z"/>
  <path class="fil20" d="M4850.81 14058.13c20.78,93.49 38.59,276.1 27.4,375.54l-17.9 2.85c13.17,7.23 187.21,8.6 202.29,8.89 2.91,-87.59 5.3,-175.5 3.63,-263.96 -1.7,-90.22 -8.89,-174.63 -11.29,-263.25 -33.49,6.9 -188.26,113.54 -204.13,139.93z"/>
  <path class="fil21" d="M4728.64 16191.46c11.51,-39.7 4.81,-332.12 4.8,-400.04 -0.01,-67.26 0.19,-134.52 0.11,-201.77 -0.07,-63 -4.36,-143.74 1.17,-204.54l-0.66 -72.68 -82.82 0c-10.21,111.98 -7.01,523.33 -6.24,659.74 0.21,36.44 -0.17,72.86 -0.15,109.3 0.1,121.54 -17.97,118.15 83.79,109.99z"/>
  <path class="fil22" d="M5047.55 15415.53l0.6 -1.65 -86.58 -6.79c0.59,130.73 -0.53,261.93 -0.53,392.74 0,41.54 -7.06,373.9 2.72,384.65 4.25,2.26 1.17,1.84 10.8,3.8 4.69,0.95 63.59,2.87 69.53,-3.78 8.96,-21.53 4.72,-685.4 3.46,-768.97z"/>
  <path class="fil23" d="M5300.1 14206.67c8.35,69.12 76.94,130.26 156.23,120.41 109.72,-13.62 166.86,-157.46 66.62,-248.69 -86.56,-78.79 -238.86,-4.32 -222.85,128.28z"/>
  <path class="fil24" d="M4485.44 16421.95c22.94,-77.86 -84.29,-87.67 -101.41,-30.97 -21.94,72.64 81.28,99.27 101.41,30.97z"/>
  <path class="fil25" d="M4960.47 15404.26l1.1 2.83 86.58 6.79c6.81,-17.2 2.28,-74.67 2.23,-101.96l-90.31 -0.26 0.4 92.6z"/>
  <path class="fil26" d="M4124.47 16949.04l45.46 0.31c4.62,-19.31 4.74,-166.16 -0.25,-184.4l-46.4 0.58 1.19 183.51z"/>
  <polygon class="fil26" points="3972.73,16948.54 4019.89,16949.01 4018.6,16764.11 3971.82,16765.52 "/>
  <path class="fil27" d="M17517.17 13379.14l754.31 25.04 10.83 1307.32c370.38,-149.99 716.99,-338.35 997.05,-561.73 -288.9,-885.86 -678.77,-1708.71 -1238.6,-2425.22 -327.57,374.33 -618.86,1119.17 -523.59,1654.59z"/>
  <path class="fil1" d="M12349.67 13398.62l-754.34 25.01 2.18 1901.66 -365.38 672.47 384.29 16.32 64.47 1136.87c-777.66,6.7 -1253.48,14.39 -1590.56,-92.52 -528.87,-167.75 -476.53,-552.91 -300.09,-997.54 187.48,-472.37 439.89,-1046.25 851.96,-1797.22l1238.78 -2428.63c295.9,374.4 355.36,1028.13 468.69,1563.58z"/>
  <path class="fil27" d="M12344.37 13401.8l-754.31 25.03 6.76 1302.04c-370.35,-150.01 -734.58,-333.06 -1014.65,-556.44 288.91,-885.87 751.9,-1618.25 1311.76,-2334.76 327.57,374.34 545.71,1028.7 450.44,1564.13z"/>
  <path class="fil28" d="M16142.3 9259.8c-667.4,-25.22 -1263,-9.24 -1905.77,-22.61 -26.28,-0.55 -201.91,-1.93 -215.47,0.07 -179.9,26.41 -71.55,-34.25 -109.27,62.2 -41.31,105.62 168.53,276.36 245.87,328.87 620.18,421.11 1970.15,211.05 1984.64,-368.53z"/>
  <path class="fil29" d="M15918.66 7583.58c-368.79,134.17 -208.65,743.27 175.24,625.16 361.73,-111.3 241.1,-776.63 -175.24,-625.16z"/>
  <path class="fil1" d="M15559.61 9602.03c-89.77,188.58 -437.7,311.78 -682.26,311.95 -144.51,0.11 -280.34,-27.07 -404.84,-80.6 -74.7,-32.12 -167.91,-90.15 -221.47,-149.63 -24.63,-27.38 -33.37,-43.14 -65.91,-64.1 -64.42,-95.02 -145.81,-213.28 -166.87,-369.19l1704.36 3.36c-11.95,139.5 -98.05,279.32 -163.01,348.21zm-3188.66 -1982.33c-599.21,-682.71 -913.77,201.18 -816.15,728.47 121.31,655.15 849.91,917.13 1108.81,448.76 35.38,54.43 56.92,191.53 78.9,265.51 77.29,259.85 211.93,496.79 357.21,700.12 101.32,141.82 202.78,249.02 333.16,365.66 171.42,153.34 350.7,245.54 403.07,289.98 125.43,40.05 215.66,119.32 469.32,186.62 448.5,118.97 965.09,109.15 1395.43,-81.2 52.85,-23.38 187.37,-93.89 231.15,-97.93 12.94,-18.55 1.76,-6.76 18.56,-20.82 47.02,-39.34 196.01,-105.1 377.88,-269.36 357.45,-322.85 662.64,-779.38 763,-1315.62 96.41,87.21 35.52,119.04 256.92,158.03 396.46,69.8 521.05,-93.25 643.65,-546.27 58.13,-324.15 103.97,-643.81 -49.76,-809.95 -288.1,-311.4 -581.36,-64.8 -702.38,32.64 -17.43,26.29 -220.96,739.19 -221.89,742.18 -47.9,-213.32 55.78,-619.61 38.58,-831.33l10.46 -465.9c-39.2,-40.83 -61.74,-57.84 -105.36,-99.53 -137.29,-131.23 -451.24,-654.31 -642.26,-883.83 -65.86,-180.57 -764.77,-500.72 -923.98,-630.93 -72.5,-59.28 -63.07,-51.38 -175.54,-63.9 -648.79,-72.29 -1653.89,-143.11 -2244.42,147.8 -80.37,39.58 -82.96,44.58 -124.42,115.79 -92.4,158.78 -157.58,322.27 -195.34,511.91 -38.16,191.5 -23.73,243.84 -5.6,431.87 40.82,423.29 99.49,1415.32 -26.26,1782.16 -61.45,-486.7 21.17,-437.8 -252.74,-790.93z"/>
  <path class="fil1" d="M13829.92 11964.83l2100.91 5.95 -0.15 -1426.4c-26.76,20.78 -130.53,191.27 -359.2,376.25 -147,118.91 -279.64,189.95 -465.65,263.17 -367.06,144.5 -843.08,164.46 -1257.53,80.3 -15.37,114.55 20.58,654.93 -18.38,700.73z"/>
  <path class="fil30" d="M13829.92 11964.83c38.96,-45.8 3.01,-586.18 18.38,-700.73 414.45,84.16 890.47,64.2 1257.53,-80.3 186.01,-73.22 318.65,-144.26 465.65,-263.17 228.67,-184.98 332.44,-355.47 359.2,-376.25l1.17 -118.7c-43.78,4.06 -178.3,74.56 -231.15,97.94 -430.35,190.35 -946.93,200.17 -1395.44,81.19 -253.65,-67.29 -343.87,-146.56 -469.32,-186.61 -3.89,260.56 3.62,523.09 2.3,783.91 -0.81,161.67 17.05,638.25 -8.32,762.72z"/>
  <path class="fil31" d="M14185.13 9619.66c32.53,20.94 41.28,36.71 65.91,64.08 53.56,59.5 146.77,117.53 221.47,149.64 124.5,53.53 260.34,80.71 404.84,80.61 244.56,-0.19 592.5,-123.38 682.27,-311.96 -190.55,-89.52 -441.74,-151.07 -694.3,-145.01 -139.44,3.34 -241.22,25.99 -362.8,57.02 -92.18,23.53 -246.18,102.59 -317.39,105.62z"/>
  <path class="fil32" d="M14185.13 9619.66c71.21,-3.03 225.21,-82.09 317.39,-105.62 121.58,-31.03 223.36,-53.68 362.8,-57.02 252.56,-6.06 503.75,55.49 694.3,145.01 64.96,-68.89 151.04,-208.71 163,-348.22l-1704.35 -3.36c21.05,155.92 102.43,274.18 166.86,369.21z"/>
  <path class="fil27" d="M11880.98 11835.05c202.96,300.51 329.9,1373.38 301.66,1565.06l1601.86 -12.28 1646.03 -5.04 2118.4 -3.71c-93.97,-643.69 188.3,-1225.3 491.83,-1654.53 -564.68,-160.97 -1432.57,-276.3 -2121.93,-348.76 -231.13,746.92 -1795.17,778.08 -2082.32,-21.96 -731.26,63.17 -1299.47,173.43 -1955.53,481.22z"/>
  <path class="fil33" d="M14973.03 12773.68c287.59,126.9 196.47,87.75 -25.08,983.44 -47.19,190.75 -90.33,341.2 -135.23,550.57 -136.42,636.22 -101.66,455.56 -247.6,446.16 -273.91,-17.66 -94.62,-350.43 58,-952.26l251.25 -938.16c93.25,-137.68 -15.01,-29.15 98.66,-89.75z"/>
  <path class="fil33" d="M13140.83 13775.28l1164.36 -734.71 179.18 224.72 -910.95 586.09c206.13,496.19 290.95,268.7 199.88,580.15 -278.38,78.03 -217.31,34.56 -370.49,-226.8 -76.67,-130.84 -177.1,-302.89 -261.98,-429.45z"/>
  <polygon class="fil33" points="14981.57,14309.53 15895.92,13725 15666.74,13228.54 15873.07,13062.85 16334.59,13795.26 15158.76,14533.37 "/>
  <path class="fil34" d="M12396.36 5881.26c98.18,-151.98 -777.21,-586.3 -347.87,-1164.29 114.24,-153.79 491.99,132.45 567.54,214.77 -46.41,-179.08 -311.73,-644 -324.34,-908.45 -27.53,-577.23 574.3,-841.16 925.6,-567.22 107.71,84 541.55,243.79 432.94,146.13 -184.12,-165.56 97.69,-786.98 598.91,-276.98 242.15,246.39 771.02,674.07 1119.53,433.45 205.74,-142.04 1005.73,-340.9 1271.5,-234.56 199.22,79.72 278.67,94.91 429.13,246.96 212.87,215.09 406.4,790.23 406.4,1085.78 0,239.98 -41.73,730.62 -21.63,738.24 700.98,265.96 144.69,1350.97 -100.68,1679.67 -192.38,257.76 -129.74,1398.34 -330.84,1195.01 -234.56,-237.18 -254.31,-733.82 -262.53,-961.68 -27.51,-760.81 -362.46,-1746.64 -965.53,-1280.96 -96.05,74.18 -203.55,125.38 -319.04,158.92 -629.13,182.72 -1496.81,-157.9 -2058.94,-159.71 -278.43,-0.88 -788.55,2049.05 -792.81,2184.29 -12.39,392.22 -584.98,-1975.72 -227.34,-2529.37z"/>
  <path class="fil32" d="M15716.73 7887.27c89.28,621.74 570.16,384.22 488.07,-269.24 -82.46,-656.38 -583.54,-395.65 -488.07,269.24z"/>
  <path class="fil32" d="M14116.88 7840.5c24.83,-196.86 -24.33,-484.99 -152.92,-581.64 -192.23,-144.47 -321,178.22 -338.52,354.23 -65.63,659.35 407.62,892.01 491.44,227.41z"/>
  <rect class="fil35" x="1263.8" y="17147.92" width="27657.34" height="225.77"/>
  <polygon class="fil36" points="13527.97,14980.16 18286.92,15559.11 18271.48,13404.18 13784.5,13387.83 "/>
  <polygon class="fil37" points="11595.76,14519.13 13527.97,14980.16 13784.5,13387.83 11594.07,13421.04 "/>
  <path class="fil30" d="M18596.17 15959.58c-181.37,-18.35 -122.07,16.49 -338.82,14.97 -0.77,51.86 1.29,76.48 1.04,128.39 127.71,12.73 238.26,-43.2 337.78,-143.36z"/>
  <path class="fil30" d="M11232.13 15997.75l365.4 -676.15 -0.72 -592.72 -482.95 1244.22c-44,110.65 -296.95,127.93 118.27,24.65z"/>
 </g>
</svg>
