<?xml version="1.0" encoding="UTF-8"?>
<!DOCTYPE svg PUBLIC "-//W3C//DTD SVG 1.1//EN" "http://www.w3.org/Graphics/SVG/1.1/DTD/svg11.dtd">
<!-- Creator: CorelDRAW 2020 (64-Bit) -->
<svg xmlns="http://www.w3.org/2000/svg" xml:space="preserve" width="207mm" height="160mm" version="1.1" style="shape-rendering:geometricPrecision; text-rendering:geometricPrecision; image-rendering:optimizeQuality; fill-rule:evenodd; clip-rule:evenodd"
viewBox="0 0 20700 16000"
 xmlns:xlink="http://www.w3.org/1999/xlink"
 xmlns:xodm="http://www.corel.com/coreldraw/odm/2003">
 <defs>
  <style type="text/css">
   <![CDATA[
    .str0 {stroke:#373435;stroke-width:20;stroke-miterlimit:22.9256}
    .fil28 {fill:none}
    .fil21 {fill:#4B4B4D}
    .fil1 {fill:#373435}
    .fil12 {fill:#043436}
    .fil17 {fill:#0C2032}
    .fil11 {fill:#0C677B}
    .fil8 {fill:#0E5D68}
    .fil14 {fill:#233C53}
    .fil20 {fill:#27DFC0}
    .fil10 {fill:#421E02}
    .fil18 {fill:#421E02}
    .fil27 {fill:#451A0B}
    .fil0 {fill:#4B4B4B}
    .fil23 {fill:#76281B}
    .fil13 {fill:#81D28B}
    .fil7 {fill:#8AA8C5}
    .fil9 {fill:#D12E45}
    .fil26 {fill:#DDB28A}
    .fil3 {fill:#E7F0EF}
    .fil24 {fill:#EDC399}
    .fil6 {fill:#EE5465}
    .fil4 {fill:#EE5465}
    .fil5 {fill:#F5B495}
    .fil15 {fill:#F5B495}
    .fil25 {fill:#F9EDD5}
    .fil16 {fill:#F9FBFC}
    .fil22 {fill:#FAD9B5}
    .fil19 {fill:#FDFDFF}
    .fil2 {fill:#FDFEFE}
   ]]>
  </style>
 </defs>
 <g id="Capa_x0020_1">
  <metadata id="CorelCorpID_0Corel-Layer"/>
  <path class="fil0" d="M44356.07 11121.3c56.18,-133.75 55.12,-259.46 -119.36,-274.03l-57.22 170c-66.62,-118.5 13.44,-76.93 -90.04,-177.44l-107.32 173.22 -51.32 -96.34c-4.43,-7.87 -11.55,-20.43 -15.36,-26.99l-150.87 130c135.08,113.87 74.7,-30.59 127.98,110.73 6.97,-6.32 14.66,-16.55 19.7,-20.23 146.07,-106.51 171.03,-14.59 223.04,-15.2l59.15 -14.2c4.4,0.76 14.05,5.76 18.94,7.07 53.09,14.18 -12.61,33.23 142.68,33.41z"/>
  <g id="_2407598506288">
   <path class="fil1" d="M15173.32 9919.89l1024.76 -4211.8c51.82,-243.41 -38.25,-369.83 -286.88,-377.34l-2540.64 25.1c-208.59,21.64 -322.26,135.97 -376.17,308.63l-1078.06 4110.74 3256.99 144.67z"/>
   <path class="fil2" d="M15548.85 9180.83l-1923.04 2.8 -2991.03 -2.18 -4667.38 -0.14 -488.67 1.54c-215.34,-20.6 -522.87,-2.77 -748.2,-2.77 -235.65,0 -534.21,52.51 -569.93,-196.58 -17.48,-121.9 40.66,-215.45 123.35,-258.25 90.6,-46.9 246.43,-26.32 358.85,-26.33 148.41,0 651.17,-20.91 754.98,8.2 114.57,13.73 521.51,11.34 640.16,-0.28 133.71,-37.46 752.99,2.16 955.59,-10.2l1241.35 6.69c1.41,0.01 2.85,0.02 4.28,0.02l907.3 -0.29c153.72,1.13 302.63,22.69 453.29,4.32 336.64,-41.07 2162.35,24.06 2722.26,-7.27 -76.97,-58.89 -139.92,-48.94 -245.16,-166.78 -125.77,-140.81 -101.59,-213 -140.15,-272.59l-1.13 -505.37 177.13 2.18 -1.41 131.14c-45.87,28.34 -65.82,32.53 -107.04,64.63l0.43 413.66 277.1 3.71 6.98 -421.8c-38.62,-24.12 -41.6,-30.56 -95.61,-47.11l-13.2 -147.64 737.86 12.16 12.89 40.59c198.93,8.23 353.94,76.66 389.65,221.8 -24.74,9.22 -64.72,10.25 -94.33,8.42 -96.56,-5.97 -124.16,-130.24 -306.7,-88.22 -18.19,242.11 -67.03,26.69 -316.64,300.76 -86.63,95.12 -186.26,261.72 -172.16,445.85l2298.59 8.12 21.36 -129.76c137.7,-46.5 307.38,-166.57 402.36,-244.2 134.47,-109.89 186.13,-188.72 274.71,-299.61 35.88,-44.92 4.8,-23.76 46.59,-39.23 12.67,125.95 29.39,221.21 32.04,356.88 2.14,108.34 -17.29,258.33 -8.87,350.77l2782.03 3.13c364.26,17.58 315.45,482.74 -2.65,478.93l-2727.83 0.3z"/>
   <path class="fil2" d="M6993.53 8696.64l1241.35 6.69c-145.69,-1.42 -230,-67.12 -234.71,-222.33 -5.2,-171.4 343.89,-2023 371.37,-2384.02 101.7,1.9 132.58,16.13 187.19,76.64 44.09,48.84 64.67,88.01 62.03,174.78 -2.93,97.07 -161.17,966.73 -189.82,1178.06 -0.31,2.4 -0.63,4.71 -0.91,6.93l-3.95 -6.95 4.86 0.02 1282.06 6.9 314.92 0.63c261.7,0.7 1193.95,92.18 1132.46,-338 -17.58,-122.94 -59.54,-286.53 -86.37,-416.18 -114.02,-550.98 -208.01,-1110.67 -333.28,-1662.52 -124.55,-548.82 -220.39,-1103.94 -334.36,-1660.72 -98.35,-480.36 -34.8,-428.01 -558.04,-427.55 -1632.29,1.47 -3329.31,-30.26 -4942.96,-0.25 -401.86,7.47 -254.06,412.1 -206.75,644.54l419.03 2091.06c25.54,122.46 72.03,303.88 82.25,422.62l240.45 1149.66c46.34,231.19 494.46,222.12 862.52,197.89l718.77 3.53c-10.82,260.02 -125.58,676.34 -145.43,928.11 -3.73,42.87 -0.26,74.9 8.36,100.75 18.81,56.45 62.21,83.45 108.96,129.71z"/>
   <path class="fil3" d="M4219.97 14777.91c23.88,113.31 114.47,203.27 255.68,182.01 159.77,-24.06 149.24,-134.04 207.33,-249.91l88.87 -423.45 1888.83 -0.48 102.23 417.2c41.58,140.27 65.32,247.74 221.19,258.74 151.63,10.7 241.49,-100.01 242.64,-249.75l-1198.59 -5536.31 -603.42 -0.71c-168.8,849.86 -428.67,2066.08 -614.28,2940.28 -70.01,329.72 -607.33,2535.94 -590.48,2662.38z"/>
   <path class="fil4" d="M1318.3 14723.64c-113.59,8.56 -385.88,-27.36 -461.74,190.35 -61.97,177.82 80.42,327.6 257.76,346.74 163.51,17.64 3941.34,4.6 4051.46,4.6 4506.09,0 9012.17,0 13518.25,0 423.64,0 1112.59,137.63 1074.84,-250.24 -36.2,-371.97 -735.39,-240.17 -1144.17,-295.04 -1493.25,0.4 -17218,121.48 -17296.4,3.59z"/>
   <path class="fil1" d="M1290.16 14886.46c-114.11,6.18 -370.33,-74.5 -446.57,82.61 -62.26,128.33 63.46,291.2 241.63,305.01 164.28,12.74 3959.96,3.32 4070.61,3.32 4527.36,0 9054.73,0 13582.1,0 425.64,0 1045.34,66.02 1007.42,-213.91 -36.37,-268.44 -666.36,-140.02 -1077.08,-179.62 -1500.3,0.28 -17299.33,87.67 -17378.11,2.59z"/>
   <path class="fil3" d="M17013.3 9208.23l-1267.52 5512.77c6.6,139.58 87.48,243.69 228.61,241.57 154.71,-2.32 195.15,-100.66 231.47,-236.35l102.39 -440.26 1893.53 4.06 102.62 427.29c23.72,135.05 65.05,228.39 204.57,243.85 138.61,15.35 211.53,-71.84 247.92,-175.96 5.21,-143.45 -253.87,-1207.24 -307.25,-1420.07 -278.75,-1111.38 -522.19,-2363.26 -800.02,-3483.61l-156.44 -695.94c-86.11,-0.48 -173.84,-1 -260.63,-1.05 -43.51,-0.02 -89.86,-1.92 -132.76,-1.21 -54.57,0.91 -55.44,-2.23 -86.49,24.91z"/>
   <path class="fil5" d="M13283.4 5710.18c23.92,176.46 814.43,262.66 1043.17,-104.72 47.59,-236.48 -121.92,-806.74 -91.84,-915.41l-582.15 44.84c-16.5,-39.35 -1.48,-4.48 -16.8,-30.37 -115.09,-194.49 -124.35,-475.08 -5.47,-641.28l606.23 -555.73c-672.36,-154.47 -1040.54,-487.92 -1628.98,-902.61 -78.11,-55.04 -1107.09,573.46 -1173.56,535.15 -89.39,328.78 -43.87,660.97 -24.22,1002.03 21.23,368.25 13.43,602.35 198.68,868.28 123.36,177.07 346.04,348.51 635.21,421.23 343.13,86.3 637.29,6.35 982.4,7.82 8.82,15.12 4.83,4.29 15.51,33.08l23.12 95.24c11.83,54.44 19.67,84.66 18.7,142.45z"/>
   <path class="fil5" d="M14408.28 6331.53c33.69,20.24 73.26,45.65 122.55,57.54 25.99,6.26 60.04,11.39 86.65,12.18 114.52,3.42 58.88,-11.03 60.21,-11.96l111.21 389.64c78.64,165.57 121.83,305.47 200.46,471.04 -2.51,238.93 -27.46,396.08 -196.02,552.79 -100.07,93.04 -211.62,166.46 -369.79,218.61 -186.18,61.4 -926.17,62.28 -1103.2,7.32 -24.74,9.22 -64.72,10.25 -94.33,8.42 -96.56,-5.97 -124.16,-130.24 -306.7,-88.22 -6.08,80.84 -15.58,110.67 -34.81,124.75 -38.39,28.07 -115.58,-6.54 -281.83,176.01 -86.63,95.12 -186.26,261.72 -172.16,445.85l2298.59 8.12 21.36 -129.76c137.7,-46.5 307.38,-166.57 402.36,-244.2 134.47,-109.89 186.13,-188.72 274.71,-299.61 450.98,-564.58 542.42,-1109.24 226.37,-1649.27 -114.03,-194.84 -523.62,-615.05 -725.77,-656.16 -47.92,112.17 -158.56,274.82 -225.31,342.33 -51.71,52.33 -83.36,86.52 -139.25,140.57 -43.7,42.26 -105.99,81.19 -155.3,124.01z"/>
   <path class="fil5" d="M12140.95 6380.8c3.2,275.91 -65.89,539.2 -104.9,766.47 -41.16,239.81 -23.29,451.39 -271.56,653.16 -159.72,129.81 -441.08,124.81 -709.04,128.37 -297.42,3.94 -558.47,113.25 -855.48,106.44 -0.9,108.51 -50.11,185.82 -161.04,180.87 -114.75,-5.13 -126.48,-87.65 -162.43,-182.98 -177.09,16.48 -246.28,0.87 -394.65,77.78 -81.08,42.02 -208.5,144.69 -240.71,230.54 11.94,79.28 -4.54,27.71 46.61,85.86 78.47,89.24 86.24,140.18 90.28,266.54l192.47 -4.42c19.94,-38.35 47.03,-328.1 323.76,-366.52 201.54,-27.98 1632.01,17.48 2044.86,-5.3l-2.42 -56.87 -1.13 -505.37 177.13 2.18c5,-80.89 -7.97,-43.21 31.32,-69.62 74.94,42.52 3.86,155.94 49.13,213.85l-13.2 -147.64 737.86 12.16c-29.06,-24.56 24.34,-10.44 -56.91,-20.01l-205.1 -2.66 -26.21 -654.29c38.56,-53.06 -51.84,-310.13 -32.07,-801.37 -60.69,12.33 -139.76,40 -207.37,57.37 -65.09,16.72 -194.81,16.76 -249.2,35.46z"/>
   <path class="fil6" d="M15146.37 5768.78c-194.68,-146.28 -449.59,-222.17 -819.8,-163.32 -212.97,351.38 -1007.27,288.48 -1043.17,120.11l-684.16 66.33c-131.68,12.76 -202.68,19.29 -280.36,75.2 -150.11,108.02 -253.49,608.6 -255.08,928.62 178.87,33.38 360.66,35.71 546.27,-2.7l45.73 950.61 205.1 2.66c81.25,9.57 27.85,-4.55 56.91,20.01l12.89 40.59c198.93,8.23 353.94,76.66 389.65,221.8 177.03,54.96 917.02,54.08 1103.2,-7.32 158.17,-52.15 269.72,-125.57 369.79,-218.61 32.39,-419.86 -6.25,-798.5 -68.42,-1163.59 -15.75,-52.62 -64.15,-246.53 -54.27,-209.71l129.34 482.12c487.51,-16.56 829.5,-144.53 925.43,-393.58 -72.69,-325.92 -290.28,-560.08 -579.05,-749.22z"/>
   <path class="fil1" d="M16400.88 13928.76l1705.66 1.4c-5.16,-109.71 -543.91,-2359.96 -612.78,-2691.38 -72.38,-348.35 -408.46,-328.39 -473.34,-26.6 -27.93,129.94 -58.26,259.67 -89.35,384.1 -38.39,153.68 -526.2,2244.85 -530.19,2332.48z"/>
   <path class="fil1" d="M4867.51 13895.38l1702.93 4.03c-1.26,-104.25 -298.38,-1339.42 -346.33,-1541.37l-263.92 -1154.74c-74.83,-324.83 -396.08,-344.2 -473.78,-17.33 -30.74,129.32 -61.95,256.15 -89.44,382.55 -42.83,196.86 -527.16,2252.73 -529.46,2326.86z"/>
   <path class="fil3" d="M11936.7 8260.74l2.42 56.87c-412.85,22.78 -1843.32,-22.68 -2044.86,5.3 -276.73,38.42 -303.82,328.17 -323.76,366.52l-192.47 4.42c-4.04,-126.36 -11.81,-177.3 -90.28,-266.54 -51.15,-58.15 -34.67,-6.58 -46.61,-85.86 -47.42,31.06 -72.75,-8.79 -157.23,-18.57 -270.91,-31.35 -818.72,133.53 -728.58,-389.71 22.58,-131.08 38.72,-289.89 70.75,-406.73l3.95 6.95c25.95,-198.46 187.76,-1086.82 190.73,-1184.99 2.64,-86.77 -17.94,-125.94 -62.03,-174.78 -54.61,-60.51 -85.49,-74.74 -187.19,-76.64 -27.48,361.02 -376.57,2212.62 -371.37,2384.02 4.71,155.21 89.02,220.91 234.71,222.33 1.41,0.01 2.85,0.02 4.28,0.02l907.3 -0.29c153.72,1.13 302.63,22.69 453.29,4.32 336.64,-41.07 2162.35,24.06 2722.26,-7.27 -76.97,-58.89 -139.92,-48.94 -245.16,-166.78 -125.77,-140.81 -101.59,-213 -140.15,-272.59z"/>
   <path class="fil7" d="M5093.68 7349.16l-3.66 219.03c-0.21,12.28 57.55,33.88 57.52,46.18 -0.54,182.67 2.48,345.51 2.46,526.03 -0.02,202.58 -27.28,348.36 129.09,481.07 44.34,37.63 91.5,45.87 118.69,85.65 114.57,13.73 521.51,11.34 640.16,-0.28 30.02,-80.08 255.58,-28.88 254.69,-447.86 -0.27,-122.87 -17.55,-470.41 -4.61,-629.44 2.04,-25.09 62.57,-45.55 66.31,-59.63l0.41 -243.39c-412.34,48.09 -832.48,56.63 -1261.06,22.64z"/>
   <path class="fil2" d="M16994.57 8683.65l506.39 1.97c100.88,-8.76 187.12,-82.58 228,-146.03 68.81,-106.83 55.53,-186.14 55.42,-325.15 -0.22,-260.11 3.68,-522.76 -0.71,-782.52l-520.62 -10.83 -175.44 1.88 -36.82 2.82 -256.46 -2.58 -62.36 2.44c-27.31,142.8 -5.97,585.52 -6.02,759.18 -0.08,273.13 26.99,453.6 268.62,498.82z"/>
   <path class="fil3" d="M7274.88 5267.66c0,321.28 212.67,525.34 511.57,533.77 296.54,8.37 519.22,-223.53 526.46,-504.16 -73.2,-60.47 -313.81,-15.86 -460.32,-315.19 -30.82,-62.97 -48.49,-135.57 -55.17,-213.11 -211.52,-57.67 -522.54,180.19 -522.54,498.69z"/>
   <path class="fil8" d="M17281.26 6541.14c-0.04,100.03 -5.11,212.21 -0.42,310.81 4.81,100.95 76.82,149.14 164.87,94.96l2.59 472.41 248.97 -3.67c-0.78,-136.28 7.54,-943.22 -8.08,-998.54 -25.87,-91.6 -128.59,-111.41 -203.43,-59.49 -4.41,-39.46 -1.84,-60.81 -2.65,-98.61 -1.47,-67.57 12.47,-62.77 -31.22,-95.19 -57.88,48.24 -27.38,416.43 -26.09,569.9l-5.38 129.63c-11.78,38.61 4.27,7.68 -16.34,30.87 -90.54,58.68 -65.73,-136.19 -65.6,-205l-0.02 -429.43c-0.02,-72.26 14.53,-65.24 -32.79,-95.43 -48.38,46.02 -24.38,310.41 -24.41,376.78z"/>
   <path class="fil9" d="M17087.61 7422.97l175.44 -1.88c3.79,-95.88 8.59,-223.73 2.49,-318.08 -5.02,-77.67 -48.57,-180.46 -65.45,-279.96 -11.47,-67.6 -46.18,-181.17 -65.63,-255.5 -19.61,-74.97 -53.29,-189.41 -158.11,-165.34 -184.24,42.33 -48.9,344.21 -17.66,490.17l128.92 530.59z"/>
   <path class="fil2" d="M12758.71 4838.25c-221.94,7.45 -417.49,38.04 -630.53,52.01 -8.71,0.57 -66.77,5.8 -71.11,7.5 -57.66,22.66 -25.85,-18.8 -32.01,42.45 -6.74,67.09 73.67,165.95 102.62,195.91 232.2,240.26 664.08,62.89 631.03,-297.87z"/>
   <path class="fil10" d="M9876.5 8033.13c35.94,95.32 47.68,177.84 162.44,182.97 110.92,4.95 160.13,-72.35 161.02,-180.86l-172.04 -501.26 -314.92 -0.62 163.5 499.77z"/>
   <path class="fil11" d="M17072.32 441.84l247.15 245.36c-144.64,118.44 -107.41,255.85 -11.04,313.31 124.67,74.35 278.95,-16.28 260.47,-173.85 -10.57,-90.16 -169.25,-222.8 -224.27,-278.01 -153.03,-153.58 63.36,-167.84 96.79,-303.26 -100.79,-40.33 -149.72,-43.8 -223.37,32.3 -43.87,45.32 -121.38,107.39 -145.73,164.15z"/>
   <path class="fil12" d="M16794.33 7423.21l256.46 2.58c9.37,-75.31 -48.82,-248.8 -68.91,-330.88 -26.45,-108.08 -29.75,-258.41 -145.55,-278.78 -162.99,-28.66 -153.49,131.23 -122.13,249.98 27.33,103.49 65.78,250.98 80.13,357.1z"/>
   <path class="fil13" d="M12112.69 7757.54l-1.4 131.15c-45.87,28.34 -65.82,32.53 -107.04,64.63l0.42 413.66 277.11 3.71 6.98 -421.8c-38.62,-24.11 -41.61,-30.57 -95.61,-47.11 -45.27,-57.92 25.82,-171.33 -49.13,-213.85 -39.29,26.41 -26.31,-11.26 -31.33,69.61z"/>
   <path class="fil10" d="M11674.85 3973.81c-43.81,17.49 -74.96,46.14 -94.82,80.28 -80.67,138.66 24.66,367.84 223.07,306.9 112.89,-34.68 144.2,-152.84 117.21,-252.23 -27.94,-102.87 -118.36,-185.65 -245.46,-134.95z"/>
   <path class="fil10" d="M12667.94 3914.07c-220.48,107.47 -81.17,475.63 149.74,377.15 217.58,-92.79 99.17,-498.48 -149.74,-377.15z"/>
   <path class="fil11" d="M16508.54 1476.82c-39.08,26.41 -153.42,15.15 -178.28,123.94 -21.3,93.27 42.2,162.44 114.29,171.07 225.33,26.96 129.55,-273.18 169.44,-419.17 70.37,-25.78 120.1,-7.87 199.42,-19.71 -2.43,-138.16 -169.2,-141.47 -303.44,-113.97l-1.43 257.84z"/>
   <path class="fil10" d="M13969.35 3716.5l129.46 -44.1 -0.18 -755.36c-110,45.03 -130.94,163.83 -130.33,321.91 0.61,158.63 -2.92,319.27 1.05,477.55z"/>
   <path class="fil2" d="M5275.32 6535.69l25.26 167c104.53,41.4 283.57,-56.75 392.11,192.47l1.14 -356.7c-134.33,-5.15 -290.23,15.37 -412.45,-25.52l-6.06 22.75z"/>
   <path class="fil14" d="M15702.78 14310.07c-96.87,-50.74 -387.11,-39.6 -500.23,-10.93 -258.13,-7.16 -1661.41,-28.81 -1792.08,16.76 -44.51,-72.75 -443.13,-39.89 -503.25,-11.3l-1794.2 -0.38c-101.1,-37.08 -384.61,-39.03 -504.13,-0.27l-21.75 1.24c-60.2,-266.13 27.57,-247.35 107.41,-411.02 359.68,-67.31 1100.14,-21.83 1501.09,-21.87 457.6,-0.06 1010.14,-33.49 1453.32,-0.12 421.54,-0.7 846.72,-1.6 1268.11,3.81 134.9,1.73 524.95,-15.19 627.57,12.04 152.44,40.45 259.01,250.41 158.14,422.04z"/>
   <rect class="fil15" transform="matrix(0.905394 0.269295 -0.195647 1.24621 9759.76 12936.9)" width="616.16" height="541.97" rx="159.88" ry="159.88"/>
   <polygon class="fil16" points="10825.36,14439.09 10582.14,14096.74 11155.17,13706.04 11343.42,13617.71 11574.28,13945.27 "/>
   <polygon class="fil16" points="8747.99,13981.95 8583.29,13594.58 9225.96,13338.03 9428.58,13292.83 9584.36,13663.06 "/>
   <path class="fil6" d="M9488.68 13306.31c91.73,271.13 544.28,283.38 852.85,239.72l84.51 19.03 67.55 565.64c0.95,6.72 9.38,79.93 9.23,88.25 -1.56,84.11 9.42,23.65 -13.49,75.48 -307.31,-9.31 -913.5,-165.69 -1255,-226.5 -349.93,-62.32 -978.39,-214.99 -1307.21,-213.86 12.96,-92.87 175.29,-121.43 359.87,-185.61 115.58,-40.18 269.44,-86.87 379.31,-142.47 175.47,225.02 153.8,304.35 316.49,314.55 30.17,-137.84 -94.32,-245.43 -167.7,-355.19l115.05 -51.58c33.55,62.63 69.77,101.81 118.41,176.25 87.3,133.61 49.9,156.1 202.97,129.13 -4.56,-171.73 -183.42,-337.38 -189.46,-338.69l103.56 -61.19c48.76,98.99 200.29,394.88 303.69,287.35 46.34,-104.29 -119.59,-246.04 -173.89,-345.22 122.94,-25.28 106.07,-40.95 193.26,24.91z"/>
   <path class="fil16" d="M7927.12 13854.07c328.82,-1.13 957.28,151.54 1307.21,213.86 341.5,60.81 947.69,217.19 1255,226.5l-31.14 316.31 -2687.89 -481.17 41.49 -289.12c63.53,-17.79 17.42,-4.92 115.33,13.62z"/>
   <rect class="fil15" transform="matrix(1.05256 0.269295 -0.227448 1.24621 11620.7 13121.5)" width="616.16" height="541.97" rx="159.88" ry="159.88"/>
   <path class="fil17" d="M15702.78 14310.07c82.92,207.77 33.42,255.87 -45.35,399.79l-405.49 7.17c-110.47,-199.97 -105.79,-169.15 -49.39,-417.89 113.12,-28.67 403.36,-39.81 500.23,10.93z"/>
   <path class="fil17" d="M13410.47 14315.9l-1.1 399.02 -503.59 3.12 1.44 -413.44c60.12,-28.59 458.74,-61.45 503.25,11.3z"/>
   <path class="fil18" d="M14759.5 5000.19c-144.66,-24.85 -423.82,233.72 -453.59,210.74 -40.87,-31.55 -79.64,-278.78 -193.42,-393.31 -291.72,-293.61 77.93,-421.87 36.58,-878.68 -25.27,-279.03 -116.4,-546.67 -378.07,-344.73 -337.93,260.8 -236.48,757.79 -437.5,995.38 -327.06,-131.5 -7.36,-725.98 -365.79,-901.17 -231.79,-113.29 -177.35,3.3 -279.96,-171.8 -151.44,-258.45 439.99,-1378.88 -789.88,-512.43 -129.17,90.99 -371.69,87.91 -474.91,179.34 -362.24,17.9 -333.61,135.79 -668.52,-64.87 -191.89,-176.11 -402.45,-332.59 -318.34,-716.01 82.41,-375.64 341.42,-436.55 535.4,-603.98 204.06,-76.24 690.03,-119.73 838.88,-210.33 175.67,-106.94 153.39,-244.97 379.03,-288.37 218.28,-41.98 407.83,-16.25 614.37,53.73 258.09,87.45 83.75,91.93 311.47,-25.88 439.85,-227.59 673.96,114.8 856.19,149.53 157.68,30.04 996.6,-292.1 1185.94,1562.52 59.24,580.38 -338.38,1367.34 -397.88,1960.32z"/>
   <path class="fil2" d="M13884.79 3778.76c-80.64,14.47 -242.4,188.9 -254.48,284.48 -118.88,166.19 -109.62,446.79 5.47,641.28 15.32,25.89 0.3,-8.98 16.8,30.37 62.42,146.48 281.42,306.65 497.2,335.16 267.64,35.36 475.72,-81.98 598.55,-215.6 338,-367.72 198.2,-906.33 -172.04,-1103.32l-3.12 287.47c22.72,34.89 0.94,-1.23 26.61,31.4 6.55,8.33 4.86,4.6 18.56,25.26 4.33,6.53 28,47.28 33.15,57.36 175.33,343.5 -113.28,787.95 -539.01,665.01 -171.86,-49.63 -313.4,-203.98 -328.49,-423.15 -9.16,-132.95 37.45,-208.62 84.24,-297.23 37.59,-71.16 20.33,-224.43 16.56,-318.49z"/>
   <path class="fil3" d="M13438.59 1211.29c-84.5,-12.95 -302.13,-174.08 -575.33,-164 -204.46,7.54 -444.67,153.48 -475.44,302.29 288.9,-32.38 445.03,-45.96 710.33,48.83 597.25,213.42 982.52,801.68 998.44,1435.76 -340.62,128.3 -125.17,687.2 -211.8,944.59 3.77,94.06 21.03,247.33 -16.56,318.49 -46.79,88.61 -93.4,164.28 -84.24,297.23 15.09,219.17 156.63,373.52 328.49,423.15 425.73,122.94 714.34,-321.51 539.01,-665.01 -5.15,-10.08 -28.82,-50.83 -33.15,-57.36 -13.7,-20.66 -12.01,-16.93 -18.56,-25.26 -25.67,-32.63 -3.89,3.49 -26.61,-31.4l3.12 -287.47c-50.23,-178.42 36.28,-575.43 -37.56,-745.95 -57.2,-132.12 -144.32,-121.51 -153.62,-224.63 -12.01,-133.1 -22.08,-227.37 -50.5,-353.81 -61.18,-272.16 -215.32,-576.35 -387.4,-777.3 -69.9,-81.62 -126.92,-122.53 -193.63,-202.88l-119.55 -97.76 -195.44 -137.51z"/>
   <path class="fil17" d="M14066.14 13231.85l-1.4 650.58 -1266.01 -3.43 0.81 -651.83 317.94 -9.33 -1.62 -2779.13c-320.87,-6.89 -650.42,9.8 -962.21,-0.17 -312.86,-10 -450.28,-147.74 -448.8,-392.57l3454.04 -1.68c-10.17,241.35 -133.56,381.25 -442.88,392.62 -299.84,11.03 -661.85,3.6 -965.06,-1.44l-4.21 2785.96 319.4 10.42z"/>
   <path class="fil2" d="M14196.12 4050.28c-147.85,27.47 -302.67,199.76 -265.12,386.21 8.7,43.23 36.31,82.33 51.26,110.41 29.22,54.88 21.57,51.74 76.94,83.25 73.23,41.67 151.06,77.35 259.33,51.3 139.58,-33.6 273.12,-194.21 234.08,-380 -26.93,-128.15 -186.71,-282.72 -356.49,-251.17z"/>
   <path class="fil19" d="M13557.13 6792.34c109.36,42.12 74.73,29.17 8.21,366.67 -14.17,71.88 -27.55,128.67 -40.53,207.45 -39.44,239.35 -29.72,171.46 -84.24,170.56 -102.32,-1.69 -41.49,-128.81 4.6,-355.65l76.82 -353.85c32.27,-52.93 -6.11,-10.58 35.14,-35.18z"/>
   <path class="fil19" d="M12892.71 7198.03l420.49 -294.38 70.73 80.48 -328.77 234.52c85.62,181.09 113.15,94.86 84.79,212.47 -102.27,34.03 -80.31,16.75 -142.02,-77.84 -30.88,-47.36 -71.35,-109.64 -105.22,-155.25z"/>
   <polygon class="fil19" points="13587.72,7364.12 13917.79,7130.13 13823.58,6949.34 13897.46,6883.96 14082.4,7148.47 13657.7,7444.32 "/>
   <path class="fil20" d="M5142.8 6425.2c5.25,308.08 343.8,226.47 546.81,234.25l-1.15 356.69c-108.53,-249.22 -287.58,-151.06 -392.11,-192.46 -38.86,23.03 -92.16,13.74 -147.72,16.31 -3,95.13 22.39,132.81 72.62,179.75 35.99,33.63 36.71,25.96 83.51,48.02 109.38,51.57 252.7,13.59 387.37,14.24 0.17,54.36 1.08,106.49 0.61,157.99 -1.57,169.89 -3.08,120.52 27.88,140.29 34.59,-59.84 9.9,-193.09 21.53,-298.17l379.09 -7.45c100.22,-52.99 162.26,-83.44 170.31,-237.02 -554.88,-6.89 -398.49,19.12 -546.82,155.18l-3.42 -335c276.76,-2.26 533.96,47.06 549.9,-250.54 -153.99,-2.85 -355.2,-29.89 -460.56,55.26 -28.16,22.76 -20.6,18.96 -41.18,46.61l-44.73 54.45 -2.95 -289c154.61,-7.49 333.78,19.71 321.35,-151.78 -332.65,-25.06 -268.75,52.2 -342.52,104.02 -65.82,-17.54 -36.51,-73.26 -128.56,-99.59 -45.73,-13.08 -164.79,-7.94 -217.45,-6.77 -25.38,194.18 227.17,147.13 312.82,157.08l2.19 298.61c-139.14,-170.31 -442.29,-258.93 -546.82,-150.97z"/>
   <path class="fil1" d="M10157.62 9885.52l5004.65 -22.75c479.2,-14.07 446.07,604.08 -27.07,610l-5006.95 78.77c-339.84,14.31 -304.07,-654.24 29.37,-666.02z"/>
   <path class="fil1" d="M9638.74 13256.12l710.98 102.88 644.62 -2428.29 684.76 -80.65c125.74,-414.87 -63.42,-887.4 212.93,-1038.44 155.88,-67.36 847.7,-230.45 1060.59,-254.3l85.46 -257.01 -652.92 -117.74c-86.67,219.22 -455.53,279.7 -952.31,330.16 -243.55,24.75 -486.2,53.47 -730.66,80.43 -502.81,55.45 -1008.89,24.58 -1033.17,606.03l-30.28 3056.93z"/>
   <path class="fil21" d="M11472.15 13432.31l806.84 60.03 697.03 -2703c396.76,44.3 1525.3,-386.98 1571.84,-766.75 101.96,-230.71 73.37,-344.74 128.28,-578.67l-1631.93 -162.02 -91.59 275.42c-212.89,23.85 -995.86,192.07 -1151.75,259.42 -282.52,100.76 -265.71,3169.15 -328.72,3615.57z"/>
   <path class="fil17" d="M11113.02 14304.22c76.3,234.37 42.19,243.54 -49.37,406.63l-407.09 5.86 -85.29 -103.67c4.41,-151.41 -3.28,-169.49 37.62,-309.09 119.52,-38.76 403.03,-36.81 504.13,0.27z"/>
   <path class="fil6" d="M14638.18 9620.69c37.94,-140.41 65.3,-279.09 26.54,-439.14 -0.02,-0.07 -0.03,-0.15 -0.05,-0.22l-2279.51 1.24c276.19,139.84 765.51,171.13 1080.45,188.37 421.48,-2.34 813.21,57.6 1172.57,249.75z"/>
   <path class="fil6" d="M11423.12 13601.17c150.7,242.58 593.96,149.36 884.4,35.16l86.57 -1.11 193.89 534.85c2.45,6.32 27.25,75.63 28.99,83.76 17.54,82.23 14.53,20.83 3.96,76.6 -301.22,62.34 -926.66,50.98 -1272.83,71.14 -354.72,20.65 -1001,18.07 -1320.79,95.57 -8.42,-93.4 143.1,-158.92 308.22,-264.27 103.39,-65.97 242.57,-147.15 336.91,-226.8 221.77,178.25 218.65,260.5 379.31,232.62 -1.86,-141.17 -147.4,-216.97 -243.7,-306.75l100.3 -76.93c46.84,53.16 90.98,82.88 155.18,144.03 115.25,109.76 83.94,140.34 226.82,78.53 -43.35,-166.1 -254.97,-285.77 -261.15,-285.64l86.94 -83.62c69.89,85.03 284.4,337.81 360.69,209.13 21.47,-112.28 -172.14,-211.69 -247.46,-295.61 113.93,-53.17 93.95,-64.51 193.75,-20.66z"/>
   <path class="fil16" d="M10027.31 14497.14c319.79,-77.5 966.07,-74.92 1320.79,-95.57 346.17,-20.16 971.61,-8.8 1272.83,-71.14l41.36 315.1 -2725.2 156.2 -25.12 -291.05c57.81,-32.07 15.84,-8.83 115.34,-13.54z"/>
   <path class="fil22" d="M1237.64 14709.23c-11.87,20.4 -109.99,182.72 30.99,209.46 278.62,52.85 857.02,-97.77 895.04,-69.36l-40.05 -208.88 -885.98 68.78z"/>
   <path class="fil23" d="M1988.96 15005.76l-17.29 -154.64c324.69,-202.97 718.09,35.64 228.05,-462.34 -139.74,-146.45 -335.51,-877.61 418.12,-874.59 549.64,2.21 235.23,-234.35 1171.47,-386.06 702.13,-113.78 1335.77,83.57 1859.79,491.86 176.28,137.34 262.8,301.91 409.03,414.25 -194.1,-1364.69 -2826.32,-1738.98 -3877.65,-532.96 -113.23,129.89 12.37,37.28 -156.11,99.68 -371.3,137.46 -349.44,764.43 -526.5,1080.3 -94.45,168.5 -139.91,196.65 -96.67,396.35 261.5,68.33 380.69,-34.32 587.76,-71.85z"/>
   <path class="fil24" d="M4892.85 14012.51c-91.75,146.32 -191.05,292.5 -122.12,473.94 73.96,194.62 213.03,209 315.72,324.72l-365.75 28.44c-136.12,20.44 -112.96,19.5 -174.27,129.74 119.28,249.19 786.53,126.4 1013.54,46.25 145.73,-48.17 268.43,-123.58 353.37,-243.58l140.81 -226 16.87 -113.91 -95.32 74.8c-42.3,-149.88 -256.08,-360.43 -422.22,-444.3 -256.37,-129.43 -404.12,-108.82 -660.63,-50.1z"/>
   <path class="fil25" d="M2873.51 14847.78c40.53,-103.06 51.31,-116.4 184.18,-154.31 606.71,-173.09 145.35,583.12 -184.18,154.31zm-673.79 -459c197.62,394.01 400.91,373.14 391.3,372.47 -237.78,-16.38 -465.08,10.49 -689.22,50.41 -41.86,56.93 -10.23,147.46 39.05,194.11l434.18 -27.64c701.36,-65.79 416.55,49.22 751.69,64.07 187.82,8.31 206.63,-73.39 309.45,-157.25l-197 -731.94c-411.52,-264.62 -225.75,-50.39 -630.86,-584.91 -16.46,51.64 -406.35,782.06 -408.59,820.68z"/>
   <path class="fil26" d="M2199.72 14388.78c0.57,-9.75 242.35,-136.39 340.77,-329.49 101.02,-198.2 58.9,-463.24 67.82,-491.19 316.84,510.75 90.93,396.29 630.86,584.91 -18.62,-136.41 -38.98,-253.58 -95.78,-365.14 -76.92,-151.08 -111.45,-139.32 -214.92,-235.18 260.79,-89.93 355.59,50.29 508.29,252.58l58.05 74.28c5.21,6.51 13.91,17.96 21.83,26.03 32.5,-56.94 -17.76,-96.08 309.37,-88.76 459.74,10.29 651.8,89.82 1066.84,195.69 256.51,-58.72 404.26,-79.33 660.63,50.1 166.14,83.87 379.92,294.42 422.22,444.3l95.32 -74.8 -12.89 -397.87c-146.23,-112.34 -232.75,-276.91 -409.03,-414.25 -524.02,-408.29 -1157.66,-605.64 -1859.79,-491.86 -936.24,151.71 -621.83,388.27 -1171.47,386.06 -753.63,-3.02 -557.86,728.14 -418.12,874.59z"/>
   <path class="fil25" d="M3516.64 13905.59c218.94,64.22 383.07,725.29 348.89,1052.03 132.26,-156.17 -114.88,-223.75 353.77,-212.94 177.82,4.09 390.44,-0.24 501.4,94.93l365.75 -28.44c-102.69,-115.72 -241.76,-130.1 -315.72,-324.72 -68.93,-181.44 30.37,-327.62 122.12,-473.94 -415.04,-105.87 -607.1,-185.4 -1066.84,-195.7 -327.13,-7.31 -276.87,31.83 -309.37,88.78z"/>
   <path class="fil23" d="M3239.17 14153.01l197 731.94c53.98,36.67 117.39,104.09 201.23,136.97 179.78,70.5 182.12,39.54 228.13,-64.3 34.18,-326.74 -129.95,-987.81 -348.89,-1052.03 -7.92,-8.08 -16.62,-19.53 -21.83,-26.03l-58.05 -74.29c-152.69,-202.29 -247.5,-342.51 -508.29,-252.58 103.47,95.86 138,84.1 214.92,235.18 56.8,111.56 77.16,228.73 95.78,365.14z"/>
   <path class="fil23" d="M6742.38 14540.35l19.13 227.06c944.93,-1.38 764.88,-913.44 475.57,-807.39 -176.87,130.48 284.94,501.53 -494.7,580.33z"/>
   <polygon class="fil23" points="6054.15,14546.02 5913.34,14772.02 6519.3,14786.94 6761.51,14767.41 6742.38,14540.35 "/>
   <path class="fil27" d="M2873.51 14847.78c329.53,428.81 790.89,-327.4 184.18,-154.31 -132.87,37.91 -143.65,51.25 -184.18,154.31z"/>
   <path class="fil28 str0" d="M2447.87 14488.87c22.46,167.33 338.79,415.57 459.93,479.2"/>
   <path class="fil28 str0" d="M2466.31 14103.75c60.44,48.82 166.9,117.98 231.33,31.19 4.72,-6.37 11.28,-14.29 10.69,-21.94"/>
   <path class="fil28 str0" d="M2904.69 14089.88c-2.6,81.7 185.78,115.73 223.76,4.63"/>
   <path class="fil28 str0" d="M2898.34 14648.48c0,4.35 -5.22,7.88 -11.67,7.88 -6.44,0 -11.67,-3.53 -11.67,-7.88 0,-4.35 5.23,-7.88 11.67,-7.88 6.45,0 11.67,3.53 11.67,7.88"/>
   <path class="fil28 str0" d="M2804.74 14609.85c0,6.53 -5.23,11.82 -11.68,11.82 -6.45,0 -11.67,-5.29 -11.67,-11.82 0,-6.52 5.22,-11.81 11.67,-11.81 6.45,0 11.68,5.28 11.68,11.81"/>
   <path class="fil28 str0" d="M2854.45 14725.45c0,6.23 -4.98,11.27 -11.13,11.27 -6.15,0 -11.14,-5.04 -11.14,-11.27 0,-6.23 4.99,-11.27 11.14,-11.27 6.15,0 11.13,5.04 11.13,11.27"/>
  </g>
 </g>
</svg>
